/* XPM */
static char *out[] = {
/* columns rows colors chars-per-pixel */
"64 64 176 2 ",
"   c #3E2C21",
".  c #4A1F1C",
"X  c #47221D",
"o  c #4A221D",
"O  c #482720",
"+  c #432E23",
"@  c #482A22",
"#  c #463226",
"$  c #453729",
"%  c #4B3529",
"&  c #433A2A",
"*  c #4D392B",
"=  c #50352A",
"-  c #533B2D",
";  c #573F30",
":  c #693E30",
">  c #1B4725",
",  c #1C4926",
"<  c #1F552F",
"1  c #214F2B",
"2  c #23512D",
"3  c #3E4D34",
"4  c #265531",
"5  c #285632",
"6  c #2B5A35",
"7  c #2E5E39",
"8  c #3F5137",
"9  c #3D5B3B",
"0  c #1C673A",
"q  c #22683C",
"w  c #32633D",
"e  c #3B613F",
"r  c #42432F",
"t  c #414731",
"y  c #484732",
"u  c #414A33",
"i  c #5E4434",
"p  c #584A36",
"a  c #5D4F39",
"s  c #44593B",
"d  c #4C5A3D",
"f  c #56573D",
"g  c #5C573E",
"h  c #644635",
"j  c #6B4435",
"k  c #664937",
"l  c #664B39",
"z  c #6B4D3B",
"x  c #754437",
"c  c #744638",
"v  c #724C3B",
"b  c #794D3D",
"n  c #64523D",
"m  c #6F503E",
"M  c #71513E",
"N  c #2C6B41",
"B  c #366740",
"V  c #386741",
"C  c #356A42",
"Z  c #3A6B44",
"A  c #3C6F48",
"S  c #2C7246",
"D  c #2F784A",
"F  c #347247",
"G  c #387247",
"H  c #367549",
"J  c #3E714A",
"K  c #367A4D",
"L  c #3D7A4F",
"P  c #3D7E51",
"I  c #5D5C42",
"U  c #655C44",
"Y  c #735341",
"T  c #7A5243",
"R  c #765947",
"E  c #775A48",
"W  c #7A5D4A",
"Q  c #4A6342",
"!  c #456A47",
"~  c #4A6D4A",
"^  c #526A4A",
"/  c #5B6B4D",
"(  c #42754D",
")  c #49704B",
"_  c #43784F",
"`  c #5E6E50",
"'  c #4D7551",
"]  c #467A52",
"[  c #4A7F56",
"{  c #5A7D59",
"}  c #67624A",
"|  c #656A4F",
" . c #7E604E",
".. c #6C6B51",
"X. c #84453F",
"o. c #864E46",
"O. c #86554A",
"+. c #875A4D",
"@. c #8A5A4E",
"#. c #875F51",
"$. c #836553",
"%. c #896354",
"&. c #856957",
"*. c #896857",
"=. c #8A6C5A",
"-. c #956458",
";. c #946C5C",
":. c #9B6B5E",
">. c #8D715E",
",. c #8A7460",
"<. c #8B7A64",
"1. c #917361",
"2. c #977564",
"3. c #A36F63",
"4. c #448155",
"5. c #4B8057",
"6. c #4D8259",
"7. c #44895A",
"8. c #4B895D",
"9. c #50865C",
"0. c #538A5F",
"q. c #558C61",
"w. c #4E9364",
"e. c #5B9367",
"r. c #5F976B",
"t. c #619A6D",
"y. c #659E71",
"u. c #67A173",
"i. c #69A375",
"p. c #6CA779",
"a. c #6EAA7B",
"s. c #72AE7E",
"d. c #8C8067",
"f. c #8D846A",
"g. c #8D896E",
"h. c #8E8F72",
"j. c #8E9374",
"k. c #8F9978",
"l. c #909F7D",
"z. c #91A17E",
"x. c #75B282",
"c. c #79B686",
"v. c #7DBB8A",
"b. c #91A682",
"n. c #92AB85",
"m. c #93B78D",
"M. c #93B98E",
"N. c #94BE92",
"B. c #81C08E",
"V. c #85C593",
"C. c #88C996",
"Z. c #8CCC99",
"A. c #95C295",
"S. c #96C799",
"D. c #96CC9C",
"F. c #8FD19D",
"G. c #92D29E",
"H. c #94D5A1",
"J. c #98D7A3",
"K. c #97DAA5",
"L. c #98DBA6",
"P. c #9ADEA8",
"I. c #9BE3AC",
"U. c #9AE8AF",
"Y. c #9AECB2",
"T. c #9BF1B5",
"R. c #A1E5AF",
"E. c #A2E7B0",
"W. c #A5EAB3",
"Q. c #A8EEB7",
"!. c #A9EFB8",
"~. c #ACF2BA",
"^. c #B0F7BF",
"/. c #B0F8BF",
"(. c #B4FCC3",
"). c #B9FFC8",
/* pixels */
"L.L.L.L.L.L.L.L.L.L.L.L.L.L.L.L.L.L.L.L.L.L.L.L.L.L.L.L.L.L.L.L.L.L.L.L.L.L.L.L.L.L.L.L.L.L.L.L.L.L.L.L.L.L.L.L.L.L.L.L.L.L.L.L.",
"L.L.L.L.L.L.L.L.L.L.L.L.L.L.L.L.L.L.L.L.L.L.L.L.L.L.L.L.L.L.L.L.L.L.L.L.L.L.L.L.L.L.L.L.L.L.L.L.L.L.L.L.L.L.L.L.L.L.L.L.L.L.L.L.",
"L.L.L.L.L.L.L.L.L.L.L.L.L.L.L.L.L.L.L.L.L.L.L.L.L.L.L.L.L.L.L.L.L.L.L.L.L.L.L.L.L.L.L.L.L.L.L.L.L.L.L.L.L.L.L.L.L.L.L.L.L.L.L.L.",
"L.L.L.L.L.L.L.L.L.L.L.L.L.L.L.L.L.L.L.L.L.L.L.L.L.L.L.L.L.L.L.L.L.L.L.L.L.L.L.L.L.L.L.L.L.L.L.L.L.L.L.L.L.L.L.L.L.L.L.L.L.L.L.L.",
"L.L.L.L.L.L.L.L.L.L.L.L.L.L.L.L.L.L.L.L.L.L.L.L.L.L.L.L.L.I.I.L.L.L.L.P.L.L.L.L.L.L.L.L.L.L.L.L.L.L.L.L.L.L.L.L.L.L.L.L.L.L.L.L.",
"L.L.L.L.L.L.L.L.L.L.L.L.L.L.L.L.L.L.L.L.L.L.L.L.L.L.L.P.W.J.P.W.L.Q.Q.Q.Q.L.J.I.W.R.L.L.L.L.L.L.L.L.L.L.L.L.L.L.L.L.L.L.L.L.L.L.",
"L.L.L.L.L.L.L.L.L.L.L.L.L.L.L.L.L.L.L.L.L.L.L.L.L.L.L.W.x.B Z B.^.M.t.e.B.R.Q.P.V.H.Q.P.L.L.L.L.L.L.L.L.L.L.L.L.L.L.L.L.L.L.L.L.",
"L.L.L.L.L.L.L.L.L.L.L.L.L.L.L.L.L.L.L.L.L.L.L.L.L.L.W.H.6 4 2 ( y.6 4 2 2 V.L._ w V p.R.P.L.L.L.L.L.L.L.L.L.L.L.L.L.L.L.L.L.L.L.",
"L.L.L.L.L.L.L.L.L.L.L.L.L.L.L.L.L.L.L.L.L.L.L.J.W.~.(.e.4 Z Z B 5 w C Z 7 _ A 6 B 7 , x.).I.L.L.L.L.L.L.L.L.L.L.L.L.L.L.L.L.L.L.",
"L.L.L.L.L.L.L.L.L.L.L.L.L.L.L.L.L.L.L.L.L.L.L.E.Z.s.q.B Z Z [ [ P C J [ _ w 7 V C w 7 s.F.H.I.L.L.L.L.L.L.L.L.L.L.L.L.L.L.L.L.L.",
"L.L.L.L.L.L.L.L.L.L.L.L.L.L.L.L.L.J.P.Y.!.!.~.V.w 1 7 6.[ ] 9.6.5.] 6.6.9._ w ( ] A _ 9.5 J G.R.L.L.L.L.L.L.L.L.L.L.L.L.L.L.L.L.",
"L.L.L.L.L.L.L.L.L.L.L.L.L.L.L.L.L.I.Y.M.r.y.W.p., ] 6.[ 5.5.[ [ 5.5.5.5.5.[ [ 6.9.9.A 7 w 2 V./.L.L.L.L.L.L.L.L.L.L.L.L.L.L.L.L.",
"L.L.L.L.L.L.L.L.L.L.L.L.L.L.L.L.L.W.u.4 4 1 _ e.w ] 6.[ [ [ [ [ 5.5.[ [ [ 5.6.[ [ 6.( w w 0.C.P.W.L.L.L.L.L.L.L.L.L.L.L.L.L.L.L.",
"L.L.L.L.L.L.L.L.L.L.L.L.L.L.L.L.W.V.6 w Z Z 7 w _ [ [ [ [ [ [ [ [ 5.[ [ [ [ [ [ [ 9.J B Z ( w V v.W.L.L.L.L.L.L.L.L.L.L.L.L.L.L.",
"L.L.L.L.L.L.L.L.L.L.L.L.L.L.I.!.).V.6 B B Z [ [ [ 6.[ [ [ 6.[ [ 5.[ [ [ [ 5.6.5.] ( V Z Z C w 2 w L.I.L.L.L.L.L.L.L.L.L.L.L.L.L.",
"L.L.L.L.L.L.L.L.L.L.L.L.K.W.H.v.Z.Z.A B Z _ 6.6.[ [ 6._ A 6.6.[ [ [ [ [ 5.[ ] [ A w V B V Z Z w ] W.(.I.K.L.L.L.L.L.L.L.L.L.L.L.",
"L.L.L.L.L.L.L.L.L.L.L.L.W.N.C 6 6 6.q.( ] 6.[ [ [ [ [ 6.( V ( Z Z [ 5.[ 5.( J ( Z C Z ( Z ] ] w 6.t.p.P.R.K.L.L.L.L.L.L.L.L.L.L.",
"L.L.L.L.L.L.L.L.L.L.P.E.P.C 5 C w Z 6.6.[ 5.[ [ [ [ [ 9.] w A _ ( 5.5.[ [ ] [ 6.] V ] 9.[ [ 6.] _ w 1 ] I.R.L.L.L.L.L.L.L.L.L.L.",
"L.L.L.L.L.L.L.L.L.P.R.R.~.6.6 C C _ 6.[ [ [ [ [ [ 6.[ [ Z B 6.6.5.5.[ 5.[ 5.5.5.[ ] 6.[ [ 5.[ 6.6.9._ 1 u.).~.W.L.K.L.L.L.L.L.L.",
"L.L.L.L.L.L.L.L.L.E.r.Z V.x.5 C [ [ [ [ 5.[ [ 5.[ [ [ [ ( _ [ [ [ [ [ [ [ [ 5.[ [ 6.[ [ [ [ [ [ [ [ ( 7 w q.t.Z.R.L.L.L.L.L.L.L.",
"L.L.L.L.L.L.L.L.W.V.4 6 J 6.Z Z 6.5.[ [ [ 5.[ [ [ 6.] _ 6.9.[ [ [ [ [ 5.[ [ [ [ [ [ [ 6.[ [ [ [ [ [ [ ( w 4 1 w G.R.L.L.L.L.L.L.",
"L.L.L.L.L.L.L.L.Q.V.6 A 6.[ 6.A ( 6.5.[ [ [ [ 5.[ 9.( Z [ [ [ [ 5.[ [ [ [ 5.5.[ 5.5.6.] [ [ [ [ [ [ [ [ _ V Z 4 v.).I.L.L.L.L.L.",
"L.L.L.L.L.L.L.W.(.V.Z A [ [ [ [ ] [ 5.[ 5.[ 5.[ [ [ Z A 9.[ [ [ [ [ [ 5.5.[ 5.5.6.[ ( A [ 6.[ [ [ 5.[ 6.9.( w 6 t.P.L.R.H.L.L.L.",
"L.L.L.L.L.I.W.C.c.9.] 6.[ [ [ [ 5.[ [ [ 5.5.6.] Z Z w B [ [ Z C 6.6.6.[ 6.8.8._ [ ( w ( 6.[ [ [ [ [ [ [ 6._ B V w w ( Z.R.L.L.L.",
"L.L.L.L.P.E.p.4 4 _ 9.[ [ 6.[ [ 6.[ 5.] J 6.[ A w Z ( J B A A Z ( [ ( C _ ' ! C Z Z C J 6.6.6.[ [ 5.[ 5.[ ( Z A C w 1 a.~.L.L.L.",
"L.L.L.L.W.V.4 w ] [ [ [ [ [ [ [ ] 6.9.( w C ( ] ( [ 6.[ ( [ 6.[ B B J H 9 o X 9 H V Z C ( ] ] 6.[ [ [ [ [ [ 6.[ V w V K.~.K.L.L.",
"L.L.L.L.W.V.7 ( 0.[ [ [ [ [ [ [ A J ] Z Z A [ 6.[ 6.6.[ 6.5.[ 6.J ( 6.5.Z $ . t K K G Z B w ] 6.[ [ [ [ [ 5.6.5.A C w ] Z.R.L.L.",
"L.L.L.L.L.Q.9.7 6.[ [ [ [ [ [ 9.[ B B B _ 6.[ [ [ [ [ [ [ [ [ [ 5.6.5.6.P B @ @ 8 9 8 Z Z C _ 6.6.[ [ [ [ [ 6.[ V Z A , _ W.P.L.",
"L.L.L.L.R.P.[ A [ [ [ [ [ 6.[ [ ( C V B ( 6.[ [ [ [ [ [ [ [ [ [ 5.5.5.6.Z $ # # @ o $ H F V C ( ] _ [ [ 6.( J Z V V V 7 t.W.P.L.",
"L.L.L.P.R.[ 6 [ [ [ [ [ [ 5._ V V C V _ 6.5.6.[ [ [ [ [ [ [ [ [ 5.5.6.[ V & @ # # # + y I A w J [ [ [ [ 5.[ w V V C w ( R.R.L.L.",
"L.L.L.I.J.w 4 _ 9.[ [ [ 9.9.A B Z C C 6.6.5.[ 5.5.[ [ [ [ [ [ [ 5.[ ( Z K 9 @ # # # # o i J A ] 6.[ [ [ 5.5._ [ _ Z V w p.E.P.L.",
"L.L.L.L.Q.s.2 7 [ [ [ [ ] ] Z V C ~ Z K 6.P Z 6.8.6.6.6.[ [ 6.[ 6.] B C Z & + # # # # + # ) 8.6.5.[ [ [ 5.[ 5.6.6.( w 7 w H.R.L.",
"L.L.L.L.L.R.G.i.w [ 6.] A w V Z q ^ &.Z G d w K [ J J ] 6.9.[ A L Z V H e @ # # # # # # X f w.6.[ [ [ [ 5.[ [ 5.6.( A B ] L.I.L.",
"L.L.L.L.L.R.!.t.7 ( 6.5.5.] Z C C ..3.$.a c I d $ C K C ( ] A V B H H J Z $ @ # # # # # # 9 4.( _ 6.[ [ [ [ [ [ [ [ 5.A x.~.L.L.",
"L.L.L.L.L.W.B.2 w w ( 5.5.9.( w ..:.;.*.z j v c @ 3 C r & H V H u u H K s @ # # # # # @ & C C w ( 6.6.5.5.[ [ [ [ 5.[ J s.~.L.L.",
"L.L.L.L.L.I.R.q.w ] ] [ 5.5.5.] Z | 2.$.l z m i # X @ X # e K K t o & & + + $ # # # # # @ s D S C ( ( [ [ [ 5.5.[ [ 6.[ 7 a.W.L.",
"L.L.L.L.L.P.R.c.A [ [ [ 5.5.5.( 0 ~ ;.m l Y i   # # # # + # t r # # @ @ # # # # # # #   = v g Q C B B C [ 6.6.5.6.[ ] ( > [ Q.P.",
"L.L.L.L.R.P.[ 6 _ ] 6.[ 5.5.5.P ~ ;.M h m M % + # # # # # # @ O + $ # # # # # # # # # # * Y b x f C Z C ( 6.( J 6.Z 4 1 7 V.W.L.",
"L.L.L.L.W.C.4 B 6.5.[ [ 5.5.5.L ) } j z m *   # # # # # # # # # # # # # # # # # # # # # # - z v z Z G Z B C C C w ( 9.] V.Q.L.L.",
"L.L.L.L.P.I.[ 2 [ 6.[ [ 5.5.( C S w m b h   # # # # # # # # # # # # # # # # # % # # # # #     j U C C C Z V B C w ( L.!.W.L.J.L.",
"L.L.L.L.L.R.P.t._ 5.5.[ 5.9.J B S e M k # # # # # # # # # # # # # # # # # # # # # # # # # # X p H C V C B ~ / N q w F.W.I.K.K.L.",
"L.L.L.L.L.L.!.t.w 8.5.[ [ _ C Z Z n b i     # # # # # # # # # + + +   # # # # # # # + % l l c Q D Z C ! N ) :...s p.~.I.K.K.L.L.",
"L.L.L.L.P.E.J.e w _ 5.9._ C | M z v m z k i #   + # # # #   + % ; i ; #   +           z M M b g C D Z n g E ;.;.-.2.M.U.T.I.K.L.",
"L.L.L.L.L.W.v.w w w F 4.] J R c z z z z M M l % # $ # + # $ i m Y M Y h * * - i - * i m z z z z l f k j : R =.=.=.%.O.<.n.U.U.K.",
"L.L.L.L.P.Q.7.< q w ^ J S q a c z z z z z z m z l z z h h m Y z z z z M m m M M M M M z z z z z l T T v R &.=.=.=.=.=.+.o.d.I.I.",
"L.L.L.J.U.R.{ d | / :.&.` } j k l z z z z z z z m z m m m v l h k h k l z z z z z z z z z z l z $.>.>.=.=.=.=.=.&.=.&.=.&.X.g.Y.",
"L.L.P.I.I.f.@.;.;.;.=.;.:.;.$.E M z j m z z z z z z z z z k k Y R W R z k z z z z l z z m z h E 1.=.=.=.=.=.=.#.O.+.+.O.O.T z.U.",
"L.L.P.I.G.*.o.@.%.=.&.=.=.=.=.>.>.$.l k l l l z z z z h k Y $.=.=.1.;.$.Y k k k z z z k h k m =.=.=.&.=.=.=.+.<.b.m.b.h.j.A.U.I.",
"L.L.L.L.I.K.l.<.*.O.O.=.=.&.=.&.=.1.$.z z Y Y Y l k l Y $.=.%.@.+.#.#.@.%.$.E W $.=.$.$. . .&.>.=.=.&.=.&.+.j.Y.T.Y.T.Y.Y.Y.L.L.",
"L.L.L.L.K.U.Y.U.K.M.g.+.#.>.=.=.=.=.=.=.&.=.=.=.$.$.$.#.@.$.<.h.n.A.N.k.=.@.*.1.>.=.=.>.>.1.=.&.=.=.=.=.+.&.U.Y.L.L.L.L.L.L.L.L.",
"L.L.L.L.L.L.K.P.U.Y.T.m.+.O.$.%.#.#.#.$.=.=.=.=.=.%.@.=.k.S.I.Y.T.Y.Y.T.P.b.&.O.O.+.O.O.O.+.O.O.+.+.+.O.O.m.Y.L.L.L.L.L.L.L.L.L.",
"L.L.L.L.L.L.K.L.L.L.I.T.S.<.*.=.,.<.<.,.$.+.O.O.#.1.b.P.T.Y.P.L.L.L.L.P.I.Y.L.n.g.f.g.j.b.m.n.z.j.g.<.f.A.Y.L.L.L.L.L.L.L.L.L.L.",
"L.L.L.L.L.L.L.L.L.L.J.L.Y.U.D.G.J.P.P.H.D.n.b.b.N.P.Y.I.P.L.L.L.L.L.L.L.L.L.I.T.Y.I.U.Y.Y.T.T.Y.Y.I.I.Y.Y.K.L.L.L.L.L.L.L.L.L.L.",
"L.L.L.L.L.L.L.L.L.L.L.L.L.I.U.U.I.P.I.I.Y.Y.Y.Y.Y.I.L.L.L.L.L.L.L.L.L.L.L.L.K.K.L.P.P.L.L.L.L.L.P.P.P.L.L.L.L.L.L.L.L.L.L.L.L.L.",
"L.L.L.L.L.L.L.L.L.L.L.L.L.L.L.K.L.L.L.L.L.L.L.L.L.L.L.L.L.L.L.L.L.L.L.L.L.L.L.L.L.L.K.L.L.L.L.L.L.L.L.L.L.L.L.L.L.L.L.L.L.L.L.L.",
"L.L.L.L.L.L.L.L.L.L.L.L.L.L.L.L.L.L.L.L.L.L.L.L.L.L.L.L.L.L.L.L.L.L.L.L.L.L.L.L.L.L.L.L.L.L.L.L.L.L.L.L.L.L.L.L.L.L.L.L.L.L.L.L.",
"L.L.L.L.L.L.L.L.L.L.L.L.L.L.L.L.L.L.L.L.L.L.L.L.L.L.L.L.L.L.L.L.L.L.L.L.L.L.L.L.L.L.L.L.L.L.L.L.L.L.L.L.L.L.L.L.L.L.L.L.L.L.L.L.",
"L.L.L.L.L.L.L.L.L.L.L.L.L.L.L.L.L.L.L.L.L.L.L.L.L.L.L.L.L.L.L.L.L.L.L.L.L.L.L.L.L.L.L.L.L.L.L.L.L.L.L.L.L.L.L.L.L.L.L.L.L.L.L.L.",
"L.L.L.L.L.L.L.L.L.L.L.L.L.L.L.L.L.L.L.L.L.L.L.L.L.L.L.L.L.L.L.L.L.L.L.L.L.L.L.L.L.L.L.L.L.L.L.L.L.L.L.L.L.L.L.L.L.L.L.L.L.L.L.L.",
"L.L.L.L.L.L.L.L.L.L.L.L.L.L.L.L.L.L.L.L.L.L.L.L.L.L.L.L.L.L.L.L.L.L.L.L.L.L.L.L.L.L.L.L.L.L.L.L.L.L.L.L.L.L.L.L.L.L.L.L.L.L.L.L.",
"L.L.L.L.L.L.L.L.L.L.L.L.L.L.L.L.L.L.L.L.L.L.L.L.L.L.L.L.L.L.L.L.L.L.L.L.L.L.L.L.L.L.L.L.L.L.L.L.L.L.L.L.L.L.L.L.L.L.L.L.L.L.L.L.",
"L.L.L.L.L.L.L.L.L.L.L.L.L.L.L.L.L.L.L.L.L.L.L.L.L.L.L.L.L.L.L.L.L.L.L.L.L.L.L.L.L.L.L.L.L.L.L.L.L.L.L.L.L.L.L.L.L.L.L.L.L.L.L.L.",
"K.L.L.L.L.L.L.L.L.L.L.L.L.L.L.L.L.L.L.L.L.L.L.L.L.L.L.L.L.L.L.L.L.L.L.L.L.L.L.L.L.L.L.L.L.L.L.L.L.L.L.L.L.L.L.L.L.L.L.L.L.L.L.L.",
"L.L.L.L.L.L.L.L.L.L.L.L.L.L.L.L.L.L.L.L.L.L.L.L.L.L.L.L.L.L.L.L.L.L.L.L.L.L.L.L.L.L.L.L.L.L.L.L.L.L.L.L.L.L.L.L.L.L.L.L.L.L.L.L."
};
