/* XPM */
static char *out[] = {
/* columns rows colors chars-per-pixel */
"64 64 114 2 ",
"   c #F2C600",
".  c #F2C800",
"X  c #F2D100",
"o  c #F2D40A",
"O  c #F2CF11",
"+  c #F2D116",
"@  c #F2D22C",
"#  c #F2D738",
"$  c #F2D94E",
"%  c #F1DA57",
"&  c #F2DA58",
"*  c #F3DE7E",
"=  c #87B994",
"-  c #96BCA1",
";  c #9ABCA5",
":  c #9FBCAA",
">  c #A2AFAA",
",  c #A4B4AC",
"<  c #A3BBAC",
"1  c #ABADB2",
"2  c #B3A1B8",
"3  c #B4ADBA",
"4  c #BAACBF",
"5  c #ABB3B3",
"6  c #B7B3BD",
"7  c #88CD97",
"8  c #8FCD9D",
"9  c #91C29E",
"0  c #84D695",
"q  c #85DA95",
"w  c #88D897",
"e  c #8DD59C",
"r  c #8BDA9B",
"t  c #90D29E",
"y  c #90DB9F",
"u  c #87E198",
"i  c #8EE19E",
"p  c #95C5A1",
"a  c #9AC4A5",
"s  c #94CCA1",
"d  c #9DCCA9",
"f  c #94D3A2",
"g  c #99D5A6",
"h  c #95DCA4",
"j  c #98DBA6",
"k  c #9CD5A9",
"l  c #9CDBA9",
"z  c #A3CCAE",
"x  c #A3D1AF",
"c  c #A0DDAD",
"v  c #A7CCB2",
"b  c #ACCBB6",
"n  c #B3C2BC",
"m  c #B0C8B9",
"M  c #AAD5B5",
"N  c #A8DCB4",
"B  c #AFDEBB",
"V  c #B1DDBC",
"C  c #94E2A3",
"Z  c #98E1A7",
"A  c #B3E1BE",
"S  c #F3DD87",
"D  c #F3DF8A",
"F  c #BEB0C3",
"G  c #BDB9C3",
"H  c #C1A7C5",
"J  c #C1B2C5",
"K  c #C4B8C9",
"L  c #C9BECE",
"P  c #CFA4D0",
"I  c #D1AFD3",
"U  c #D2B5D5",
"Y  c #DEBEE0",
"T  c #BAC6C2",
"R  c #BCD5C5",
"E  c #B5DFC0",
"W  c #B7E0C1",
"Q  c #C9C2CE",
"!  c #C1CAC9",
"~  c #C4D9CD",
"^  c #CAC6D0",
"/  c #CAC8D0",
"(  c #D0C5D4",
")  c #D3DBD9",
"_  c #C2E5CC",
"`  c #C6E1D0",
"'  c #CBE3D3",
"]  c #F2E4C9",
"[  c #DFD3E3",
"{  c #E0C3E3",
"}  c #E7CEEA",
"|  c #EBCCED",
" . c #E1D8E6",
".. c #EBD5ED",
"X. c #E7DAEB",
"o. c #EFD5F1",
"O. c #F6D7F7",
"+. c #F2D9F5",
"@. c #F6DFF9",
"#. c #FEDCFF",
"$. c #DCE5E2",
"%. c #DCE9E2",
"&. c #E5E6EB",
"*. c #E8E7ED",
"=. c #F3E8EE",
"-. c #EEE4F2",
";. c #F2E5F6",
":. c #F3E9F6",
">. c #F5E4F9",
",. c #FCE4FE",
"<. c #F4EAFC",
"1. c #FDEBFE",
"2. c #FEF3FF",
"3. c #FFFBFF",
/* pixels */
"j j j j j j j j j j j j j j j j j j j j j j j j j j j j j j j j j j j j j j j j j j j j j j j j j j j j j j j j j j j j j j j j ",
"j j j j j j j j j j j j j j j j j j j j j j j j j j j j j j j j j j j j j j j j j j j j j j j j j j j j j j j j j j j j j j j j ",
"j j j j j j j j j j j j j j j j j j j j j j j j j j j j j j j j j j j j j j j j j j j j j j j j j j j j j j j j j j j j j j j j ",
"j j j j j j j j j j j j j j j j j j j j j j j j j j j j j j j j j j j j j j j j j j j j j j j j j j j j j j j j j j j j j j j j ",
"j j j j j j j j j j j j j j j j j j j j j j j j j j j j j j j j j j j j j j j j j j j j j j j j j j j j j j j j j j j j j j j j ",
"j j j j j j j j j j j j j j j j j j j j j j j j j j j j j j j j j j j j j j j j j j j j j j j j j j j j j j j j j j j j j j j j ",
"j j j j j j j j j j j j j j j j j j j j j j j j j j j j j j j j j j j j j j j j j j j j j j j j j j j j j j j j j j j j j j j j ",
"j j j j j j j j j j j j j j j j j j j j j j j j j j j j j j j j j j j j j j j j j j j j j j j j j j j j j j j j j j j j j j j j ",
"j j j j j j j j j j j j j j j j j j j j j j j j j j j j j j j j j j j j j j j j j j j j j j j j j j j j j j j j j j j j j j j j ",
"j j j j j j j j j j j j j j j j j j j j j j j j j j j j j j j j j j j j j j j j j j j j j j j j j j j j j j j j j j j j j j j j ",
"j j j j j j j j j j j j j j j j j j j j j j j j j j j j j j j j j j j j j j j j j j j j j j j j j j j j j j j j j j j j j j j j ",
"j j j j j j j j j j j j j j j j j j j j j j j j j j j j j j j j j j j j j j j j j j j j j j j j j j j j j j j j j j j j j j j j ",
"j j j j j j j j j j j j j j j j j j j j j j j j j j j j j j j j j j j j j j j j j j j j j j j j h r w j j j j j j j j j j j j j ",
"j j j j j j j j j j j j j j j j j j j j j j j j j j j j j j j j j j j j j j j j j j j j j j j C e M B j h j j j j j j j j j j j ",
"j j j j j j j j j j j j l r w r j j j j j j h j j j j j j j j j j j j j j j j j j j j h i e q 7 / 1.1.' w j j j j j j j j j j j ",
"j j j j j j j j j l h w q N $.E q j l j j j l h j j j j j j j j j j j j j j j j j j j f x ' _ ! ,.1.1.&.0 0 h j j j j j j j j j ",
"j j j j j j j j j h l A V -.2.&.r r h j j j j j j j j j j j j j j j j j j j j j j j C - Y 3.1.1.:.<.1.&.E V j h j j j j j j j j ",
"j j j j j j j j h e ! 1.1.1.<.:.;.$.h h j j j j j j j j j j j j j j j j j j j j j j C ; U 2.:.<.<.<.<.;.1.1.&.h h j j j j j j j ",
"j j j j j j j j j w n ,.<.$ & <.1.,.g y j j j j j j j j j j j j j j j j j j j j j j h e 3 >.<.<.=.S ] <.>.1.1.B q j j j j j j j ",
"j j j j j j j j h h %.1.:.X o 2.>.m r l j j j j j j j j j j j j j j j j j j j j j j h z X.1.<.<.#   o <.<.1. .f h j j j j j j j ",
"j j j j j j j j r b #.1.<.;.:.1.2.W w j j j j j j j j j j j j j j j j j j j j j j C - ( 3.:.;.<.* O % <.1.[ s h j j j j j j j j ",
"j j j j j j j j C d 3 Q :.3.,.+.#.~ r j j j j j j j j j j j j j j j j j j j j j j i < P ,.2.2.;.<.=.<.<.1.-.Z r j j j j j j j j ",
"j j j j j j j j l Z r p +.1.! , 6 d h j j j j j j j j j j j j j j j j j j j j j j h l , 4 (  .:.:.<.<.2.<.2.' q j j j j j j j j ",
"j j j j j j j j j h C f F G e i r h j j j j j j j j j j j j j j j j j j j j j j j j Z Z y = J 1.;.2.o.} 1.,.R r j j j j j j j j ",
"j j j j j j j j j j j h f e Z j h j j j j j j j j j j j j j j j j j j j j j j j j j j j C t H 2.3.:.z > K G f h j j j j j j j j ",
"j j j j j j j j j j j j h h j j j j j j j j j j j j j j j j j j j j j j j j j j j j j j h h 1 Y ..b u C f e h j j j j j j j j j ",
"j j j j j j j j j j j j j j j j j j j j j j j j j j j j j j j j j j j j j j j j j j j j j Z g < p r l h h h j j j j j j j j j j ",
"j j j j j j j j j j j j j j j j j j j j j j j j j j j j j j j j j j j j j j j j j j j j j l h C C j j j j j j j j j j j j j j j ",
"j j j j j j j j j j j j j j j j j j j j j j j j j j j j j j j j j j j j j j j j j j j j j j j j j j j j j j j j j j j j j j j j ",
"j j j j j j j j j j j j j j j j j j j j j j j j j j j j j j j j j j j j j j j j j j j j j j j j j j j j j j j j j j j j j j j j ",
"j j j j j j j j j j j j j j j j j j j j j j j j j j j j j j j j j j j j j j j j j j j j j j j j j j j j j j j j j j j j j j j j ",
"j j j j j j j j j j j j j j j j j j j j j j j j j j j j j j j j j j j j j j j j j j j j j j j j j j j j j j j j j j j j j j j j ",
"j j j j j j j j j j j j j j j j j j j j j j j j j j j j j j j j j j j j j j j j j j j j j j j j j j j j j j j j j j j j j j j j ",
"j j j j j j j j j j j j j j j j j j j j j j j j j j j j j j j j j j j j j j j j j j j j j j j j j j j j j j j j j j j j j j j j ",
"j j j j j j j j j j j j j j j j j j j j j j j j j j j j j j j j j j j j j j j j j j j j j j j j j j j j j j j j j j j j j j j j ",
"j j j j j j j j j j j j j j j j j j j j j j j j j j j j j j j j j j j j j j j j j j j j j j j j j j j j j j j j j j j j j j j j ",
"j j j j j j j j j j j j j j j j j j j j j j j j j j j j j j j j j j j j j j j j j j j j j j j j j j j j j j j j j j j j j j j j ",
"j j j j j j j j j j j j j j j j j j j j j j j j j j j j j j j j j j j j j j j j j j j j j j j j j j j j j j j j j j j j j j j j ",
"j j j j j j j j j j j j j j j j j j j j j j j j j j j j j j j j j j j j j j j j j j j j j j j j j j j j j j j j j j j j j j j j ",
"j j j j j j j j j j j j j j j j j j j j j j j j j j j j j j j j j j j j j j j j j j j j j j j j j j j j j j j j j j j j j j j j ",
"j j j j j j j j j j j j j j j j j j j j j j j j j j j j j j h r h j j j j j j j j j j j j j j j j j j j j j j j j j j j j j j j ",
"j j j j j j j j j j j j j j j j j j j j j j j j j j j j j h f M j r l j j j j j j j j j j j j j j j j j j j j j j j j j j j j j ",
"j j j j j j j j j h j j j j j j j j j j j j j j j j j y r e ^ ,.*.j w r y j j j j j j j j j j j j j j j j j j j j j j j j j j j ",
"j j j j j j j j j j j j j j j j j j j j j j j j j h y k Z v #.2.1.$.f N c r h j j j j j j j j j j j j j j j j j j j j j j j j j ",
"j j j j j j j j j j j j j j j j j j j j j j j j h y T @.:.-.>.<.:.:.-.1.>.` y h j j j j j j j j j j j j j j j j j j j j j j j j ",
"j j j j j j j j j j j j j j j j j j j j j j j j C 9 { 3.<.1.:.<.<.1.1.:.1.1.V r j j j j j j j j j j j j j j j j j j j j j j j j ",
"j j j j j j j j j j j j j j j j j j j j j j j j h t L 1.<.:.:.<.;.<.<.<.1.,.k y j j j j j j j j j j j j j j j j j j j j j j j j ",
"j j j j j j j j j j j j j j j j j j j j j j j j j C ; ( 1.:.:.* + D <.:.;.z r j j j j j j j j j j j j j j j j j j j j j j j j j ",
"j j j j j j j j j j j j j j j j j j j j j j j j j h q T 1.<.:.X . X <.<.;.N r j j j j j j j j j j j j j j j j j j j j j j j j j ",
"j j j j j j j j j j j j j j j j j j j j j j j j j e R 2.:.<.<.S @ D <.<.1.1.c r j j j j j j j j j j j j j j j j j j j j j j j j ",
"j j j j j j j j j j j j j j j j j j j j j j j j C p +.3.<.<.<.<.<.<.:.1.:.1.` 0 j j j j j j j j j j j j j j j j j j j j j j j j ",
"j j j j j j j j j j j j j j j j j j j j j j j j C a I @.,.@.;.:.<.<.;.>.1.#.R r j j j j j j j j j j j j j j j j j j j j j j j j ",
"j j j j j j j j j j j j j j j j j j j j j j j j h Z : 3 G 5 L 2.:.2.-.6 K 6 f Z j j j j j j j j h g j j j j j j j j j j j j j j ",
"j j j j j j j j j j j j j j j j j j j j j j j j j h C h f w 5 O.3.1.) 0 8 y h l j j j j j j j j j j j j j j j j j j j j j j j j ",
"j j j j j j j j j j j j j j j j j j j j j j j j j j j h h Z s F O.| d r h h j j j j j j j j j j j j j j j j j j j j j j j j j j ",
"j j j j j j j j j j j j j j j j j j j j j j j j j j j j h j C d 2 < i j j j j j j j j j j j j j j j j j j j j j j j j j j j j j ",
"j j j j j j j j j j j j j j j j j j j j j j j j j j j j j j j C h h j j j j j j j j j j j j j j j j j j j j j j j j j j j j j j ",
"j j j j j j j j j j j j j j j j j j j j j j j j j j j j j j j j h h j j j j j j j j j j j j j j j j j j j j j j j j j j j j j j ",
"j j j j j j j j j j j j j j j j j j j j j j j j j j j j j j j j l j j j j j j j j j j j j j j j j j j j j j j j j j j j j j j j ",
"j j j j j j j j j j j j j j j j j j j j j j j j j j j j j j j j h j j j j j j j j j j j j j j j j j j j j j j j j j j j j j j j ",
"j j j j j j j j j j j j j j j j j j j j j j j j j j j j j j j j j j j j j j j j j j j j j j j j j j j j j j j j j j j j j j j j ",
"j j j j j j j j j j j j j j j j j j j j j j j j j j j j j j j j j j j j j j j j j h j j j j j j j j j j j j j j j j j j j j j j ",
"j j j j j j j j j j j j j j j j j j j j j j j j j j j j h l j j j j j j j j j j j j j j j j j j j j j j j j j j j j j j j j j j ",
"j j j j j j j j j j j j j j j j j j j j j j j j j j j j j j j j j j j j j j j j j j j j j j j j j j j j j j j j j j j j j j j j "
};
