/* XPM */
static char *out[] = {
/* columns rows colors chars-per-pixel */
"64 64 92 1 ",
"  c #98DBA6",
". c #020202",
"X c #13110F",
"o c #2B221B",
"O c #593927",
"+ c #5C3D2B",
"@ c #4C3D35",
"# c #603F2C",
"$ c #5F412E",
"% c #55443A",
"& c #60422F",
"* c #634533",
"= c #674937",
"- c #6B4D3B",
"; c #6E503E",
": c #70523F",
"> c #514641",
", c #534841",
"< c #5A4B43",
"1 c #504C4C",
"2 c #655044",
"3 c #695140",
"4 c #6A5548",
"5 c #735543",
"6 c #775846",
"7 c #785A47",
"8 c #7B5D4B",
"9 c #685951",
"0 c #745E50",
"q c #7F604E",
"w c #7D6352",
"e c #757275",
"r c #905C5B",
"t c #80614F",
"y c #836553",
"u c #866856",
"i c #886957",
"p c #8C6258",
"a c #8B6D5B",
"s c #8F715F",
"d c #937463",
"f c #967966",
"g c #9A7966",
"h c #977B69",
"j c #9C7E6C",
"k c #AD6D78",
"l c #9E816E",
"z c #9C886E",
"x c #9E8170",
"c c #A38573",
"v c #A68977",
"b c #AB8A76",
"n c #A78A78",
"m c #AA8C7A",
"M c #AD907F",
"N c #B2907C",
"B c #BA7385",
"V c #D37E9D",
"C c #DD7BA6",
"Z c #9B979B",
"A c #AC9282",
"S c #B29584",
"D c #BC9983",
"F c #B79D8D",
"G c #B99F8F",
"H c #BDA292",
"J c #C6AC9C",
"K c #D987A4",
"L c #DE90AA",
"P c #C5AFA1",
"I c #C9AFA0",
"U c #CAB2A4",
"Y c #CEB6A8",
"T c #D4BCAE",
"R c #D6BFB1",
"E c #D6C0B3",
"W c #DAC4B6",
"Q c #E1CCBE",
"! c #E4CFC2",
"~ c #E6D1C4",
"^ c #E8D4C7",
"/ c #EAD7CA",
"( c #EDDACD",
") c #F0DBCE",
"_ c #EFDCD0",
"` c #F1DDD0",
"' c #F5E2D6",
"] c #F8E5D9",
"[ c #FAE9DD",
"{ c #FFD0EE",
"} c #FEECE0",
"| c #FFF1E5",
/* pixels */
"                                                                ",
"                                                                ",
"                                                                ",
"                                                                ",
"                                                                ",
"                                       *                        ",
"                          -            u;                       ",
"                         &cH          FQ8                       ",
"                         *Y}m        s)`s                       ",
"                         5T[Tt      -J'!f*                      ",
"                         6W(!m5     g!^~f*                      ",
"                         7W^(U8    -H(~~d&                      ",
"                         6W^(Ra    8T(~!s                       ",
"                         :R^^Wc    g~~^Qy                       ",
"                         *U_!/S    M'Q(E;                       ",
"                         +F']^u+--&yR]]F#                       ",
"                         Oj|P5-sgjf7-A`j                        ",
"                          yj*uvvcjcmj5y8                        ",
"                          $-xcjjjjjjjmi*                        ",
"                          7vcjjjjjjjjjba                        ",
"                         -jcjjjjjjjjjjcc6                       ",
"                         uvlljjjjjjjjjjbs                       ",
"                        =dbjgcjjjjjjjcjcl-                      ",
"                        ;jb%9bjljjcjjc,<b5                      ",
"                        -c3eZ;vljjjjb4Z1it                      ",
"                        =gl..%NlllljD@.Xma                      ",
"                         aD2oacjfafjm0owNh-                     ",
"                         acmNcjdBLBdjcNmjct                     ",
"                        -fcjjjzpV{Kaljjjjvi                     ",
"                        8cjjjjlhkCkhjjljlc8                     ",
"                        qcjjjjjcdrdljljjcj=                     ",
"                        *fmjljjjlzljjjgcv6                      ",
"                        -5fvclxccflcclvlw-                      ",
"                       =fs-ysddsi8yasda6af=                     ",
"                      =7dmjy77uafcfay8yfmd-5                    ",
"                      5yaccccxcfagaccccjcs-y5                   ",
"                     56aajjjjlcdaaycjjjjcu6y8                   ",
"                     78safcjjjcuudwcjjjjcyuyy                   ",
"                     78duacjjjcuacugljllg8dyu                   ",
"                     5wddacjjjlahcdgjjjcs8gw8                   ",
"                      8dcygcjjlafcffjjjc8aj6:                   ",
"                      5avdyfljcuscafjjcy8mf-                    ",
"                       =dmdaxjcaagajjcatcma*                    ",
"                       =ycxsgcxcaydmccudcc-                     ",
"                       55amduffasa8ffuyjmu-                     ",
"                        s8ymxdddjxsaaacmu5y                     ",
"                        sc65dvmvccmmmms;-cy                     ",
"                        umca-5yuaaauy53yxm7                     ",
"                        qclv6   =**   8mcj5                     ",
"                        6lcl8         accf                      ",
"                        ucgvd         jcjl6                     ",
"                        umxmy         amcc7                     ",
"                         scs           hcu                      ",
"                          f            qd                       ",
"                                                                ",
"                                                                ",
"                                                                ",
"                                                                ",
"                                                                ",
"                                                                ",
"                                                                ",
"                                                                ",
"                                                                ",
"                                                                "
};
