/* XPM */
static char *out[] = {
/* columns rows colors chars-per-pixel */
"64 64 217 2 ",
"   c #FFFFFF",
".  c #5C3D2A",
"X  c #5D3D2A",
"o  c #5F402D",
"O  c #5E402E",
"+  c #61422F",
"@  c #604330",
"#  c #624332",
"$  c #624533",
"%  c #634533",
"&  c #634733",
"*  c #644532",
"=  c #644634",
"-  c #654734",
";  c #654635",
":  c #654735",
">  c #664836",
",  c #674836",
"<  c #664936",
"1  c #674837",
"2  c #674937",
"3  c #674A37",
"4  c #674938",
"5  c #674A38",
"6  c #684938",
"7  c #684A38",
"8  c #684B39",
"9  c #694B39",
"0  c #6A4B39",
"q  c #6A4B3A",
"w  c #6B4C39",
"e  c #6A4D3A",
"r  c #6B4D3A",
"t  c #6A4C3B",
"y  c #6B4C3B",
"u  c #6B4D3B",
"i  c #6B4E3B",
"p  c #6C4D3B",
"a  c #6B4E3C",
"s  c #6C4E3C",
"d  c #6C4F3D",
"f  c #6E4E3C",
"g  c #6E4F3D",
"h  c #6D503E",
"j  c #6F513E",
"k  c #6E513F",
"l  c #6F513F",
"z  c #70513E",
"x  c #71523F",
"c  c #705240",
"v  c #715240",
"b  c #715340",
"n  c #715241",
"m  c #715341",
"M  c #725442",
"N  c #725443",
"B  c #735543",
"V  c #755643",
"C  c #735544",
"Z  c #745544",
"A  c #745644",
"S  c #745645",
"D  c #755745",
"F  c #765744",
"G  c #775845",
"H  c #755846",
"J  c #765946",
"K  c #775946",
"L  c #775947",
"P  c #785947",
"I  c #785A47",
"U  c #795A47",
"Y  c #765948",
"T  c #775948",
"R  c #785A48",
"E  c #795A48",
"W  c #785B48",
"Q  c #785B49",
"!  c #795B49",
"~  c #795B4A",
"^  c #795C49",
"/  c #795C4A",
"(  c #7A5C4A",
")  c #7A5D4B",
"_  c #7B5D4B",
"`  c #7B5E4B",
"'  c #7C5E4B",
"]  c #7C5E4C",
"[  c #7D5F4D",
"{  c #7E5F4C",
"}  c #7E5F4D",
"|  c #7F604D",
" . c #7E604E",
".. c #7F614F",
"X. c #806250",
"o. c #816250",
"O. c #816350",
"+. c #806251",
"@. c #806351",
"#. c #816351",
"$. c #826352",
"%. c #836451",
"&. c #816452",
"*. c #826452",
"=. c #826552",
"-. c #836552",
";. c #826453",
":. c #836553",
">. c #836653",
",. c #836654",
"<. c #846554",
"1. c #846654",
"2. c #856755",
"3. c #866755",
"4. c #866756",
"5. c #866855",
"6. c #866856",
"7. c #876956",
"8. c #876957",
"9. c #886958",
"0. c #886A58",
"q. c #896A58",
"w. c #886B58",
"e. c #896A59",
"r. c #886B59",
"t. c #896B59",
"y. c #8B6B58",
"u. c #8A6C5A",
"i. c #8B6D5B",
"p. c #8C6C59",
"a. c #8D6E5B",
"s. c #8B6E5C",
"d. c #8C6E5C",
"f. c #8D6F5D",
"g. c #8D705E",
"h. c #8C705F",
"j. c #8E705E",
"k. c #8F715F",
"l. c #907260",
"z. c #917361",
"x. c #927462",
"c. c #937563",
"v. c #947563",
"b. c #947664",
"n. c #957765",
"m. c #967866",
"M. c #977967",
"N. c #987A68",
"B. c #997B69",
"V. c #9A7C6A",
"C. c #9B7D6B",
"Z. c #9C7E6C",
"A. c #9C7F6D",
"S. c #9D7F6D",
"D. c #9D7F6E",
"F. c #9E806E",
"G. c #9F816F",
"H. c #9B8170",
"J. c #9F8473",
"K. c #A08270",
"L. c #A08271",
"P. c #A18371",
"I. c #A28472",
"U. c #A38573",
"Y. c #A48674",
"T. c #A48675",
"R. c #A58775",
"E. c #A68876",
"W. c #A68977",
"Q. c #A78977",
"!. c #A78D7D",
"~. c #A88A78",
"^. c #A98B79",
"/. c #AA8C7A",
"(. c #AB8D7B",
"). c #A98D7C",
"_. c #AC8E7C",
"`. c #AD8F7D",
"'. c #AE907E",
"]. c #AF917F",
"[. c #B09280",
"{. c #B19686",
"}. c #B59785",
"|. c #BA9E8D",
" X c #C3AC9D",
".X c #C8AE9F",
"XX c #CAB2A2",
"oX c #CBB2A3",
"OX c #D5BDAF",
"+X c #D4BEB0",
"@X c #DAC3B4",
"#X c #DBC5B8",
"$X c #DAC5B9",
"%X c #DDC7BA",
"&X c #DFC8BA",
"*X c #DFC9BC",
"=X c #DFCABD",
"-X c #E0CABC",
";X c #E0CBBE",
":X c #E2CDC0",
">X c #E2CEC1",
",X c #E3CEC2",
"<X c #E6D1C5",
"1X c #E6D2C5",
"2X c #E7D3C7",
"3X c #E9D3C6",
"4X c #E9D5C9",
"5X c #E9D6C9",
"6X c #EBD8CC",
"7X c #EEDBCF",
"8X c #EFDCD0",
"9X c #F0DCD0",
"0X c #F2DED1",
"qX c #F2E0D4",
"wX c #F7E5D8",
"eX c #F9E6DB",
"rX c #FFF2E6",
/* pixels */
"                                                                                                                                ",
"                                                                                                                                ",
"                                                                                                                                ",
"                                                                                                                                ",
"                                                                                                                                ",
"                                                                                                                                ",
"                                                                                                                                ",
"                                                    r                         a                                                 ",
"                                                  n F.=.                    9.S.h                                               ",
"                                                  4.`.U.A                 Y ~.(.@.                                              ",
"                                                  f.Y.Q.d.                c.Y.Y.f.                                              ",
"                                                1 k.U.G.F.N             E Y.S.I.c.                                              ",
"                                                7 z.U.C.Q.>.            7.E.Z.I.b.0                                             ",
"                                                8 c.I.Z.Y.f.            B.P.Z.P.n.e                                             ",
"                                                8 c.I.Z.K.V.          I I.S.Z.P.m.i                                             ",
"                                                8 c.I.Z.Z.U.)          .Y.Z.Z.P.m.t                                             ",
"                                                6 x.I.Z.Z.R.-.        5.R.Z.Z.P.n.e                                             ",
"                                                6 l.U.Z.Z.Y.3.        j.Y.Z.Z.I.c.8                                             ",
"                                                > f.Y.Z.Z.R.q.        b.I.Z.Z.U.z.4                                             ",
"                                                  i.R.Z.Z.R.t.        m.P.Z.Z.R.u.                                              ",
"                                                  6.R.Z.Z.R.t.        m.P.Z.Z.R.*.                                              ",
"                                                  ` U.Z.Z.R.w.        c.I.Z.S.P.T                                               ",
"                                                  v Z.G.Z.Y.5.        k.R.Z.G.V.k                                               ",
"                                                  5 c.P.F.].;.        X._.U.P.n.q                                               ",
"                                                    u.'.K...l W 1.1.$.~ L f.[.i.                                                ",
"                                                    <.V.l A x.E.R.Y.Q.K.8.D 2.!                                                 ",
"                                                    6 s t.^.U.Z.Z.Z.C.S.E.U._ #                                                 ",
"                                                    , c.^.Z.Z.Z.Z.Z.Z.Z.C.K.Q.X.                                                ",
"                                                  $ l.^.C.Z.Z.Z.Z.Z.Z.Z.Z.C.P.U.b                                               ",
"                                                  ] R.S.Z.Z.Z.Z.Z.Z.Z.Z.Z.Z.C.E.f.                                              ",
"                                                ; l.E.C.Z.Z.Z.Z.Z.Z.Z.Z.Z.Z.Z.K.C.f                                             ",
"                                                y m.P.Z.Z.Z.Z.Z.Z.Z.Z.Z.Z.Z.Z.S.K.H                                             ",
"                                                d N.K.Z.Z.Z.Z.Z.Z.Z.Z.Z.Z.Z.Z.Z.U._                                             ",
"                                                2 z.U.Z.Z.Z.Z.Z.Z.Z.Z.Z.Z.Z.Z.Z.R.#.                                            ",
"                                                  i.Y.Z.Z.Z.Z.Z.Z.Z.Z.Z.Z.Z.Z.Z.Y.k.                                            ",
"                                                - j.R.C.Z.Z.Z.Z.Z.Z.Z.Z.Z.Z.Z.S.P.Z.m                                           ",
"                                                h N.Z.S.Z.Z.Z.Z.Z.Z.Z.Z.Z.Z.S.V.C.~.,.                                          ",
"                                                e.c.f.P.Z.Z.Z.Z.Z.Z.Z.Z.Z.Z.K.k.1._.5.                                          ",
"                                                d.1.l.K.Z.Z.Z.Z.Z.Z.Z.Z.Z.Z.P.z.m I.I                                           ",
"                                                u #.I.Z.Z.Z.Z.Z.Z.Z.Z.Z.Z.Z.S.K.L (                                             ",
"                                                @ j.R.Z.Z.Z.Z.Z.Z.Z.Z.Z.Z.Z.Z.E.d.O                                             ",
"                                                ( U.S.Z.Z.Z.Z.Z.Z.Z.Z.Z.Z.Z.Z.F.P.M 1                                           ",
"                                              - c.R.C.Z.Z.Z.Z.Z.Z.Z.Z.Z.Z.Z.Z.C.E.j.&                                           ",
"                                              Q U.S.Z.Z.Z.Z.C.I.R.Y.U.Z.Z.Z.Z.Z.F.K.m                                           ",
"                                              u.E.Z.Z.Z.Z.Z.E.c.w * g.E.S.Z.Z.Z.C.E.6.=                                         ",
"                                            9 l.U.Z.Z.Z.Z.E.r.. h.H.o 2.Q.Z.Z.Z.Z.U.z.c                                         ",
"                                            c z.I.Z.Z.C.Q.t.+ A.0XrX{.X s.E.C.Z.Z.P.x.! C                                       ",
"                                          A R j.I.Z.Z.K.m.l p.OX8X2X3Xv.r C.G.Z.Z.K.b. ...                                      ",
"                                          / ..u.U.Z.Z.E._ G |.5X:X=X7XoXV ] R.Z.Z.G.n...,.                                      ",
"                                          L *.u.Y.Z.S.Z.+.y.XX8X=X;X6X+Xa.( F.S.Z.G.b...&.                                      ",
"                                            :.j.Y.C.F.b.o.T.%X<X;X;X1X#XL.o.M.S.Z.K.x.( J                                       ",
"                                            1.0.N.F.S.N.| ).1X:X;X;X,X>XW.{ N.S.Z.Y.z.c                                         ",
"                                              c f.Q.C.I. .d.%X4X;X;X1X-Xx.E P.Z.Z.E.X.%                                         ",
"                                              j M F.I.I.t.x .XqX=X*X7X@XU 6.U.C.Y.B.:                                           ",
"                                              b.6.B U.Y.U.' O.&XwX9XeXJ.x P.Z.Y.Y.B [ B                                         ",
"                                              1.}.0.( V./.E.P *. X$X!.z Z./.R.Z.L 1.b.3                                         ",
"                                                X.Z.Z ; &.M.D.%.F ' | Z.G.x.&.< M d.p                                           ",
"                                                          5 g ^ ( K } S i 6                                                     ",
"                                                                                                                                ",
"                                                                                                                                ",
"                                                                                                                                ",
"                                                                                                                                ",
"                                                                                                                                ",
"                                                                                                                                "
};
