/* XPM */
static char *out[] = {
/* columns rows colors chars-per-pixel */
"64 64 201 2 ",
"   c #98DBA6",
".  c #523422",
"X  c #5A3B28",
"o  c #624331",
"O  c #624332",
"+  c #624432",
"@  c #634432",
"#  c #624533",
"$  c #634533",
"%  c #634633",
"&  c #644533",
"*  c #634634",
"=  c #644534",
"-  c #644634",
";  c #654634",
":  c #654734",
">  c #644735",
",  c #664735",
"<  c #654736",
"1  c #664736",
"2  c #664836",
"3  c #664837",
"4  c #674937",
"5  c #684A37",
"6  c #694B39",
"7  c #6A4B39",
"8  c #6A4C3A",
"9  c #6B4D3B",
"0  c #6B4F3B",
"q  c #6C4D3A",
"w  c #6D4D3A",
"e  c #6C4E3B",
"r  c #6C4E3C",
"t  c #6C4E3D",
"y  c #6D4E3D",
"u  c #6C4F3D",
"i  c #6D4F3D",
"p  c #6F503D",
"a  c #6D503E",
"s  c #6E503E",
"d  c #6E513E",
"f  c #6F513E",
"g  c #6F513F",
"h  c #6F523F",
"j  c #71523F",
"k  c #72523F",
"l  c #6F5140",
"z  c #705340",
"x  c #715341",
"c  c #725340",
"v  c #735341",
"b  c #715342",
"n  c #725342",
"m  c #735442",
"M  c #735543",
"N  c #755643",
"B  c #735644",
"V  c #755644",
"C  c #755745",
"Z  c #765746",
"A  c #765946",
"S  c #785A48",
"D  c #795A48",
"F  c #795B48",
"G  c #785B49",
"H  c #795B49",
"J  c #7A5C49",
"K  c #7A5C4A",
"L  c #7B5C4A",
"P  c #7A5D4B",
"I  c #7B5D4B",
"U  c #7C5D4A",
"Y  c #7C5E4B",
"T  c #7D5E4B",
"R  c #7C5E4C",
"E  c #7D5F4D",
"W  c #7E5F4D",
"Q  c #7D604D",
"!  c #7E604D",
"~  c #7E604F",
"^  c #7F614F",
"/  c #7F624F",
"(  c #7F6150",
")  c #80614F",
"_  c #80624F",
"`  c #806150",
"'  c #806250",
"]  c #816351",
"[  c #826352",
"{  c #816451",
"}  c #826452",
"|  c #836452",
" . c #826453",
".. c #836553",
"X. c #846654",
"o. c #866856",
"O. c #876957",
"+. c #886957",
"@. c #886A58",
"#. c #896B59",
"$. c #8A6C59",
"%. c #8A6C5A",
"&. c #8B6C5A",
"*. c #8B6D5A",
"=. c #8B6D5B",
"-. c #8C6E5B",
";. c #8B6E5C",
":. c #8C6E5C",
">. c #8D6E5D",
",. c #8D6F5D",
"<. c #8E6F5C",
"1. c #8D6F5E",
"2. c #8E6F5E",
"3. c #8E705D",
"4. c #8D705E",
"5. c #8E705E",
"6. c #8F715E",
"7. c #8F715F",
"8. c #8F725F",
"9. c #90715F",
"0. c #90725F",
"q. c #907260",
"w. c #907360",
"e. c #907361",
"r. c #917361",
"t. c #927462",
"y. c #937563",
"u. c #947663",
"i. c #947664",
"p. c #957765",
"a. c #957866",
"s. c #967866",
"d. c #977967",
"f. c #987A68",
"g. c #997B69",
"h. c #9A7B69",
"j. c #9A7C6A",
"k. c #9B7D6B",
"l. c #987D6C",
"z. c #9C7E6C",
"x. c #9D7F6D",
"c. c #9F806D",
"v. c #9D806F",
"b. c #9E806E",
"n. c #9F816F",
"m. c #A08270",
"M. c #A08371",
"N. c #A18371",
"B. c #A08473",
"V. c #A28472",
"C. c #A38573",
"Z. c #A38574",
"A. c #A48674",
"S. c #A58775",
"D. c #A68876",
"F. c #A78977",
"G. c #A88A78",
"H. c #A98B79",
"J. c #AD8F7D",
"K. c #AF917F",
"L. c #B09280",
"P. c #B19381",
"I. c #B59989",
"U. c #B79B8A",
"Y. c #B89D8D",
"T. c #BBA190",
"R. c #C5AB9B",
"E. c #C5AC9E",
"W. c #C8AE9E",
"Q. c #CCB4A5",
"!. c #D6BEAF",
"~. c #D8C2B4",
"^. c #DCC6B9",
"/. c #DCC7B9",
"(. c #DEC9BC",
"). c #DFCABD",
"_. c #E0CABD",
"`. c #E0CBBE",
"'. c #E1CBBE",
"]. c #E1CCBF",
"[. c #E2CEC2",
"{. c #E4CFC1",
"}. c #E5D1C5",
"|. c #E7D2C4",
" X c #EAD5C7",
".X c #E8D4C8",
"XX c #E8D5C8",
"oX c #EAD6C9",
"OX c #E9D6CA",
"+X c #EAD6CA",
"@X c #EAD7CA",
"#X c #EBD7CB",
"$X c #EBD8CC",
"%X c #EDD9CE",
"&X c #EEDBCF",
"*X c #EFDBCF",
"=X c #EFDCD0",
"-X c #F2DFD2",
";X c #F3E1D5",
":X c #F7E4D8",
">X c #FAE7DB",
/* pixels */
"                                                                                                                                ",
"                                                                                                                                ",
"                                                                                                                                ",
"                                                                                                                                ",
"                                                                                                                                ",
"                                                                                                                                ",
"                                                                                                                                ",
"                                                                                                                                ",
"                                                                                                                                ",
"                                                                                                                                ",
"                                                                              4.m                                               ",
"                                                = O.D.u.                  ;.D.K.o.                                              ",
"                                                = :.G.C.F.t.            7.H.x.S.%.%                                             ",
"                                                : O.S.k.z.H.>.         .F.x.z.S.%.*                                             ",
"                                                  ^ S.z.k.C.b.        m.G.k.z.S.@.;                                             ",
"                                                  f z.n.A.A.X.+ 3 2 1 I p.D.n.S...                                              ",
"                                                  o :.P.=.i H :.t.i.r...S S n.D.z                                               ",
"                                                    ~ ..i ,.A.D.V.V.C.F.n...H R                                                 ",
"                                                    O x N.D.z.z.z.z.z.k.x.H.t.<                                                 ",
"                                                  g b S.V.k.z.z.z.z.z.z.z.k.G.9.t                                               ",
"                                                r.I p.A.k.z.z.z.z.z.z.z.z.z.z.C.X.,.J                                           ",
"                                              O.#.K H.k.z.z.z.z.z.z.z.z.z.z.z.S.o.5.j.                                          ",
"                                              ( K =.S.k.z.z.z.z.z.z.z.z.z.z.k.n.f.,.8.                                          ",
"                                                M d.z.x.z.z.z.z.z.z.z.z.z.z.x.g.k.i.P                                           ",
"                                              ^ @.K i.N.z.z.z.z.z.z.z.z.z.z.N.=.} j.[                                           ",
"                                              k.#.6 n.x.z.z.z.z.N.A.b.k.z.z.m.s.x ^ i.A                                         ",
"                                            0 N.] ^ S.z.z.k.n.S.7.) z.A.z.z.z.D.E + s.O.                                        ",
"                                            c ..' V.x.z.k.N.N.V 5 B , t.S.k.z.n.x.g I '                                         ",
"                                              8 s.A.k.z.m.n.s w E.:XB.X e.D.k.k.F.7.$ l                                         ",
"                                              } G.k.z.z.D.R w U.-X=X X3.7 j.m.z.z.D.K >                                         ",
"                                              7.A.z.z.V.:.x c.~.@X(.*XW.k ^ D.k.k.D.:.&                                         ",
"                                            4 q.C.z.z.A.' U I.$X].`..X/.h.F g.b.z.C.q.-                                         ",
"                                            6 d.N.z.z.b...<.Q.%X).`.].XXI.v %.V.z.b.x.h                                         ",
"                                            _ C.z.z.z.z.| k.(.}.`.`.'.+XT.j #.V.z.k.F.+.                                        ",
"                                            i.A.z.z.z.V...*.^.OX`.`.`.#XY.N y.n.z.z.N.j.y                                       ",
"                                          a j.m.z.z.z.C.#.v R.=X_.`.[.oXv.U N.z.z.z.z.C.K                                       ",
"                                          n b.b.z.z.z.z.m.D -.|.&X).;X!.p =.C.z.z.z.z.A.!                                       ",
"                                          u j.m.z.z.z.z.V.d.q a.{.>X]./ L Z.z.z.z.z.x.C.G                                       ",
"                                            7.C.z.z.z.z.k.C.z.c K l.H W C.b.z.z.z.z.N.d.e                                       ",
"                                            Q A.z.z.z.z.z.k.M.V.&.T 0.S.x.z.z.z.z.z.A.'                                         ",
"                                              g.m.z.z.k.b.b.k.z.m.V.n.k.b.b.k.z.z.n.j.r                                         ",
"                                              7.A.z.z.b.d.k.x.z.b.b.z.x.k.d.b.z.z.A.7.                                          ",
"                                              #.D.z.z.V.@.%.J.S.b.n.S.J.%.@.V.z.z.D.@.                                          ",
"                                              Y C.z.z.V.:.C 5.} Z   ` 2.C ,.V.z.z.C.K                                           ",
"                                              g k.n.z.A.t.#             @ y.A.z.n.k.d                                           ",
"                                                d.N.k.D...                X.D.k.N.d.                                            ",
"                                                y.V.m.d.9                 8 f.m.V.y.                                            ",
"                                                *.J.L.1.                    1.L.J.$.                                            ",
"                                                { r.o.w.                    w.o.r.{                                             ",
"                                                ,.6 . O.@.                @.O.. 6 ,.                                            ",
"                                                o.I M ..                    ..M K o.                                            ",
"                                                  ;.6.K                     K 6.;.                                              ",
"                                                                                                                                ",
"                                                                                                                                ",
"                                                                                                                                ",
"                                                                                                                                ",
"                                                                                                                                ",
"                                                                                                                                ",
"                                                                                                                                ",
"                                                                                                                                ",
"                                                                                                                                ",
"                                                                                                                                ",
"                                                                                                                                ",
"                                                                                                                                "
};
