/* XPM */
static char *out[] = {
/* columns rows colors chars-per-pixel */
"64 64 91 1 ",
"  c #FFFFFF",
". c black",
"X c #1C140D",
"o c #2A2829",
"O c #3C2F26",
"+ c #3B3B3D",
"@ c #5D3E2B",
"# c #4E3C30",
"$ c #533F32",
"% c #5F412D",
"& c #504037",
"* c #5C493D",
"= c #61412E",
"- c #624433",
"; c #664936",
": c #694937",
"> c #624D3E",
", c #6B4D3A",
"< c #6E503D",
"1 c #71523F",
"2 c #4C4B4E",
"3 c #524C4A",
"4 c #535356",
"5 c #735542",
"6 c #775946",
"7 c #785845",
"8 c #735C4D",
"9 c #7B5D4B",
"0 c #715C50",
"q c #7F604E",
"w c #6D686A",
"e c #80614F",
"r c #836553",
"t c #876957",
"y c #896A56",
"u c #8E655A",
"i c #866B5C",
"p c #8A6C5A",
"a c #906A5D",
"s c #8E715E",
"d c #9A6F67",
"f c #937563",
"g c #967A66",
"h c #997A67",
"j c #9C736A",
"k c #977B6A",
"l c #9C7E6C",
"z c #A56E71",
"x c #AF6979",
"c c #B26E7D",
"v c #9E816E",
"b c #9F8473",
"n c #A2826E",
"m c #A28472",
"M c #A68977",
"N c #AC8B77",
"B c #A68A7A",
"V c #AA8C7A",
"C c #B18E7A",
"Z c #AC907F",
"A c #B4927D",
"S c #B8947F",
"D c #807F83",
"F c #C1758B",
"G c #CF7898",
"H c #928A8B",
"J c #AA8F80",
"K c #B39583",
"L c #BA9681",
"P c #BC9A86",
"I c #B29888",
"U c #BEA393",
"Y c #D5819F",
"T c #C3AA9A",
"R c #CAB2A2",
"E c #D4BCAE",
"W c #D6BFB1",
"Q c #D9C2B4",
"! c #DCC7BA",
"~ c #E1CCBE",
"^ c #FFA8D1",
"/ c #FFBADA",
"( c #E3CEC1",
") c #E6D2C5",
"_ c #E8D3C6",
"` c #EAD6C9",
"' c #EDD9CD",
"] c #F1DBCF",
"[ c #EFDCD0",
"{ c #F1DDD1",
"} c #F6E2D6",
/* pixels */
"                                                                ",
"                                                                ",
"                                                                ",
"                                                                ",
"                                                                ",
"                                                                ",
"                                                                ",
"                          ,            ,                        ",
"                         1h9          tf1                       ",
"                         eQU:        :UQ9                       ",
"                         p{~q        y!}s                       ",
"                        %l''Z,      <I'_l                       ",
"                        @B'[R7      7T['M-                      ",
"                        @V['Qr      fQ`'V%                      ",
"                        @J[(`V     1K)([J%                      ",
"                        @J}!'T,    1U'![V=                      ",
"                        @B[(`R7    6R'(`B-                      ",
"                        @b`(`Wq    yQ`(`m=                      ",
"                        @l`(`~p    g~)()g-                      ",
"                        =p()(_f    m)()(p                       ",
"                         rQ`(`g    m`(_~r                       ",
"                         5W`(`g    m`(`W1                       ",
"                         -T{(`s    l`({T=                       ",
"                         @B'[{9    q{}`B%                       ",
"                          y}}k;9trr5p!}r                        ",
"                          9It:gMmMmm79b7                        ",
"                          :%eNmllllbVk,-                        ",
"                          :fVllllllllmM6                        ",
"                         ;fVllllllllllml,                       ",
"                         9MllllllllllllVi                       ",
"                        ;smNNlllllllllCCf                       ",
"                        ,fK>>CklllllkN$8N5                      ",
"                        <ntwHynvllllmiH2f7                      ",
"                        :n8+2#SklnllS&2ofy                      ",
"                         sPX.0AvkfvvL*.OPf                      ",
"                         iNmivvkzcjhvfiNnm6                     ",
"                        ;smnNvvuG/YpvnVvkVy                     ",
"                        6vvlllvsF^Fsvkkvlmr                     ",
"                        rmkvlllvjxdvllvlvm5                     ",
"                        1vmlllllvgvllllvNi                      ",
"                        -6VmllllvvMvllnVp-                      ",
"                        e97fmmmftytsmmlq95                      ",
"                       ;lVr59ptrsspqry79Vf-                     ",
"                       6mlmlfpfmmvMvfskMmv5                     ",
"                       pMllllmmlvvllnvvlkMp-                    ",
"                      ;fmlllllllvkllllllkMf<                    ",
"                      5fhlllllllkllllllllff77                   ",
"                     77ifmllllllvvllvlllmyrr9                   ",
"                     9rrfmklllllllllllllms6ir                   ",
"                     6p9smllllmfhlllllllmp7pr                   ",
"                      prpmllklnfpfrmllllmp6r7                   ",
"                      rrqnllllmfpprVllllmp66                    ",
"                       75lblllBrtfemllllmr5:                    ",
"                       95fmlllmrpmrllllmv7;                     ",
"                       kppmvllnphmplllkmg;r5                    ",
"                       rmpmllllplmfflllBptf;                    ",
"                        t9amllvphMflllml6r,                     ",
"                          ,pmlmy,59mlmh5                        ",
"                           rVlbv  pmlmp                         ",
"                           9mmmVr lBmVp                         ",
"                            rkhf  tkls<                         ",
"                             re6  7qq6                          ",
"                                                                ",
"                                                                "
};
