/* XPM */
static char *out[] = {
/* columns rows colors chars-per-pixel */
"64 64 87 1 ",
"  c #FFFFFF",
". c #000205",
"X c #0C0704",
"o c #1F1814",
"O c #3E2D22",
"+ c #3D3430",
"@ c #4D2D1C",
"# c #563624",
"$ c #583A27",
"% c #5E3F2C",
"& c #5E402E",
"* c #51443E",
"= c #624432",
"- c #674937",
"; c #694937",
": c #674F38",
"> c #6A4C3A",
", c #6E503E",
"< c #6D594C",
"1 c #735543",
"2 c #765947",
"3 c #755C4E",
"4 c #7B5D4B",
"5 c #7E604E",
"6 c #7E6250",
"7 c #756258",
"8 c #8D4E56",
"9 c #80624F",
"0 c #836553",
"q c #876956",
"w c #896A57",
"e c #8B6D5B",
"r c #8E705E",
"t c #91715F",
"y c #B35D7A",
"u c #946360",
"i c #996266",
"p c #976E65",
"a c #8F7B61",
"s c #937462",
"d c #977967",
"f c #997A67",
"g c #9B7068",
"h c #967A6A",
"j c #9C7E6C",
"k c #9E816F",
"l c #9C8272",
"z c #A2826F",
"x c #A38573",
"c c #A68976",
"v c #AA8974",
"b c #A68C7C",
"n c #A98B79",
"m c #B08E7A",
"M c #AE917F",
"N c #B3917C",
"B c #7E7F86",
"V c #8A8485",
"C c #AD9283",
"Z c #B29482",
"A c #B89580",
"S c #B49A8C",
"D c #BBA192",
"F c #CA989B",
"G c #C5AC9D",
"H c #DC80A5",
"J c #ED8AB5",
"K c #CDB6A7",
"L c #D2BAAC",
"P c #D4BEB1",
"I c #D5C0B3",
"U c #DAC3B5",
"Y c #DCC6B9",
"T c #DDC8BB",
"R c #E1CCBF",
"E c #E4CFC2",
"W c #E6D1C4",
"Q c #EBD7CB",
"! c #EEDBCF",
"~ c #F0DBCF",
"^ c #F2DFD3",
"/ c #F7E4D8",
"( c #FCEADF",
") c #FFECE0",
"_ c #FFF1E5",
"` c #FFF7EC",
"' c #FFF8ED",
/* pixels */
"                                                                ",
"                                                                ",
"                                                                ",
"                                                                ",
"                                                                ",
"                                                                ",
"                                                                ",
"                                                                ",
"                                                                ",
"                                                                ",
"                                                                ",
"                                                                ",
"                                                                ",
"                                   >2                           ",
"                                   lMt1 >>                      ",
"                                   SKdx2=>>                     ",
"                                   6Wxfx2=>>                    ",
"                                    PYrxb2=>                    ",
"                                    x_bexx1=>                   ",
"                                    ;WUsjxf>>>                  ",
"                                     C'Zejve=>                  ",
"                                     >QYtjjx2=>                 ",
"                                      b`Crjns=>                 ",
"                                      %YRejjx4=                 ",
"                                       q)Sejbe=>                ",
"                                        S^tfxj>>                ",
"           #&-;-                        %UKwjc0=                ",
"          -bIDe1    >;,;;-=              1WCsxt=                ",
"         6W(_Dxe =1qssshdsq2-=            sUdjl1=               ",
"        1R/!Dsx1,sxxxxxxxxcxsq1&          @hGfxw>>=             ",
"        C(!Gsf20xxkjjjjjjjjjxckw>=       =1qsfneelr2=           ",
"       -K(Lsd2qvxjjjjjjjjjjjjjlvh2=    >=qxnewjs0xvxq;          ",
"       0QWzs4enjjjjjjjjjjjjjjjjjxx0=   =enxjxjflsfjlns-         ",
"       6^Grssxjjjjjjjjjjjjjjjjjjjxcq= =0njfjjjjjzjjjjne=        ",
"        PLejxjjjjjjjjjjjkjjjjjjjjjjx4=1jxjjjjjjjjjjjjjc4        ",
"        lLsjjjjjjjjjjjjjjjjjjjjjjjjxj=qcjjjjjjjjjjjjjjxs>       ",
"         ecjjjjjkjjjjjjjjjjjjjjjjjjxf>sljljjjjjjjjjjjjlx2       ",
"         txjjjjjjjjjjzjjjjjjjjjjjjjxw>fjjjjjjjjjjjjjjjjx5       ",
"        4xjjjkjjjjjjjjjjjjjjjjjjjjjxq;kkjjjjjjjjjfxzzzjv0       ",
"        wxjjjjjjjjjjjjjjjjjjjjjjjjlxw>jkjjjjjjjjjzx7*jzxq       ",
"        wxjjjjjjjjjjjjjjjjjjjjjjjjjxs>sxjjjjjjjjzNOBV2xx4       ",
"        0xjjjjjjjjjkjjjjjjjsdkjjjjjjx>wxjjjjjjjjkNo.+vxk1       ",
"        qxjjjjjjjjjjjjjjjjxesljjjjjjx22njjjjjjjjkn<X3Nxr        ",
"        1jljjjjjjjjjjjjjjjxqskjjjjjjxs=sbjjjjjjjjjxzxjk1        ",
"        =enfjjjjjjjjjjjjjjj9jjjjjjjjjn4-xxjjjjjjjjjzjca         ",
"         0kxjjjjjjjjjjkjjcq6cjjjjjjjjjx4>wzbxjjjjkjjkp8         ",
"         20nkjjjjjjjjjjjxk;sxjjjjjjjjjxxw244enxjkhjksyH1        ",
"         w44nxjjjjjjjjjxc,4xjjxjjjkjjjjjxxf024fnkkkkuJF         ",
"         1f12lvlkkjkjlnj;1xkkjrjjjjjjjjjjjkNs$;qhxxcpi:         ",
"          qn1>qfcxxxxj0=,xxjx92xjjjjjjjjjjjc4-  :454,           ",
"          =rZq>>4qeq1=-0xkjjc24bjjjjjjjjjjbt=                   ",
"           =sNxs;&&&2sxckjjjx0,xjjjjjjjjjxk;                    ",
"            =snCe&>-2jxckjjjxs;jxjjjjkjjxl,                     ",
"             =enq=,,-  rjcxkkk;0cjjjjjjxh;                      ",
"              =2,  ,;    0sjxCe;kkjjjjjcq&                      ",
"               =;           4es-wcjjjjjxs;                      ",
"                               ;>jxjjjjjl1=                     ",
"                                =2nxjjjjcw==>>                  ",
"                                 =2jbxjjjkss1                   ",
"                                  =;0jcxxxbAw                   ",
"                                    &,5eddq4                    ",
"                                       ;2                       ",
"                                                                ",
"                                                                "
};
