/* XPM */
static char *out[] = {
/* columns rows colors chars-per-pixel */
"64 64 94 2 ",
"   c #98DBA6",
".  c black",
"X  c #1A120D",
"o  c #1B1B1C",
"O  c #27292D",
"+  c #42332A",
"@  c #563724",
"#  c #5D3F2C",
"$  c #543F31",
"%  c #5E402D",
"&  c #56463B",
"*  c #5F493B",
"=  c #61422F",
"-  c #644533",
";  c #674937",
":  c #684936",
">  c #674938",
",  c #6B4D3B",
"<  c #6F513F",
"1  c #70513E",
"2  c #474240",
"3  c #4B4A4D",
"4  c #5D4B41",
"5  c #5E5B5E",
"6  c #654F41",
"7  c #665043",
"8  c #6F5240",
"9  c #735442",
"0  c #775947",
"q  c #785A46",
"w  c #7B5D4B",
"e  c #7F614E",
"r  c #7C6151",
"t  c #80614F",
"y  c #836553",
"u  c #866856",
"i  c #886A57",
"p  c #8C665A",
"a  c #846B5C",
"s  c #8B6C5B",
"d  c #8E715E",
"f  c #91725F",
"g  c #996E66",
"h  c #8F7463",
"j  c #937563",
"k  c #967966",
"l  c #9B7169",
"z  c #967A69",
"x  c #9C7E6C",
"c  c #AA6073",
"v  c #A56E71",
"b  c #B36E7E",
"n  c #9E816E",
"m  c #9C8170",
"M  c #A1826F",
"N  c #A38573",
"B  c #A98672",
"V  c #A68876",
"C  c #AB8A76",
"Z  c #AA8C7A",
"A  c #B08E7A",
"S  c #B5937E",
"D  c #BD7288",
"F  c #C1768B",
"G  c #CE7797",
"H  c #848185",
"J  c #999090",
"K  c #B29583",
"L  c #B99580",
"P  c #BB9985",
"I  c #B69B8B",
"U  c #B99E8E",
"Y  c #D5829F",
"T  c #C6AC9C",
"R  c #CCB4A5",
"E  c #D5BEAF",
"W  c #D6BFB0",
"Q  c #D7C0B2",
"!  c #D9C2B3",
"~  c #DCC6B8",
"^  c #DECABC",
"/  c #E0CBBD",
"(  c #FFA6CF",
")  c #FFBBDC",
"_  c #E3CEC1",
"`  c #E6D2C5",
"'  c #E8D3C6",
"]  c #EBD6CA",
"[  c #EEDACD",
"{  c #EFDCD0",
"}  c #F2DED1",
"|  c #F5E3D7",
" . c #F7E4D8",
".. c #FBE9DE",
/* pixels */
"                                                                                                                                ",
"                                                                                                                                ",
"                                                                                                                                ",
"                                                                                                                                ",
"                                                                                                                                ",
"                                                                                                                                ",
"                                                                                                                                ",
"                                                                                                                                ",
"                                                                                                                                ",
"                                                                                                                                ",
"                                                                                                                                ",
"                                                                                                                                ",
"                                                                              ,                                                 ",
"                                                    ,                         y 1                                               ",
"                                                  : Z U ,                   Z ! t                                               ",
"                                                  < !  .k                 i ~ ..k                                               ",
"                                                  w _ | T 9             8 K ] ] V =                                             ",
"                                                  s ' [ ~ j             t R } ] Z -                                             ",
"                                                  k ] _ _ Z ,           N _ ` ] Z -                                             ",
"                                                # k [ _ } T 9         9 U ] _ ] Z =                                             ",
"                                                # k ] _ ] W y         0 T [ _ ] N %                                             ",
"                                                  j ] _ ' / k         y W ] _ ] m %                                             ",
"                                                  s ` ` _ _ m         k / ` _ ] k                                               ",
"                                                  w / ' _ ` N = : , % M ' _ _ ' a                                               ",
"                                                  9 E ] _ ` x q N Z 9 x ] / ` ^ 0                                               ",
"                                                  , T [ _ ` x w s u 9 x ] _ [ R :                                               ",
"                                                  - I [ _ ` k 1 w y , z ] _ } U -                                               ",
"                                                    N { } ] y y j s w e [ | ] x                                                 ",
"                                                    w | | x - 9 w w 0 , h ^ } 0                                                 ",
"                                                  > e K r , z N V N V N w 0 z w q                                               ",
"                                                - x s @ y Z N x x x x x V x - w K 9                                             ",
"                                                y N , j V x x x x x x x x m N w z x ,                                           ",
"                                                k w y Z x x n x x x x x x x V k q Z w                                           ",
"                                              0 y 0 V x x x x x x x x x x x x V t k j                                           ",
"                                              w w y N C C x x x x x x x x x A A s f x ,                                         ",
"                                              9 e j K 6 > C x x x x x x x V $ r N s k                                           ",
"                                              0 9 N e 3 J s M x x x x x x j H 2 f s s -                                         ",
"                                            s z : N 7 O 5 6 A x x n x n S & 5 o h s 0 t                                         ",
"                                            j N > u L X . a A x z f z n L 4 . + P s > N e                                       ",
"                                          , x n , y C N a M x x v b v x x x a Z M m w x u                                       ",
"                                          9 V j - h x N A x x s Y [ G p n n C n x V w j s                                       ",
"                                          < N y 8 N x x x x x j F ( F g n x x x x V 0 s s                                       ",
"                                            x y 0 Z x x x x x N g c g x x x x x x N < i y                                       ",
"                                            y y 8 x N x x x x x n k x x x x x x V y w e ,                                       ",
"                                            s j 9 9 Z x x x x x N N N n x x x Z s 0 z y s                                       ",
"                                          9 V s k 0 8 k V V N z s r u j N V n e 9 N N y k ,                                     ",
"                                          > k s s V y q q w y s s i s s y w e y n k z t q                                       ",
"                                            8 , t V V N s s j N N N N N j s z V V e i 0                                         ",
"                                                u V x x N N x x x x x x M N x x V s q 8                                         ",
"                                                y V x x x x n k k N z z x x x x N s ,                                           ",
"                                                y N x x x x x j f j s N x x x x V s -                                           ",
"                                                t V x x x x n j f s y V x x x x N y :                                           ",
"                                                0 N x x x x N s h N y N x x x x N w                                             ",
"                                                < k N x x x V y w s u x x x x N n 0                                             ",
"                                                  s V x x x V y = # 9 x x x x n x 8                                             ",
"                                                  e Z x x x N y       N x x x Z d                                               ",
"                                                    j V z x V y       N x x N x 9                                               ",
"                                                    : j N x V s     t N x M z 9                                                 ",
"                                                      q N x x M     d V x V s                                                   ",
"                                                      q V N N Z t : z V M Z s                                                   ",
"                                                        y x z k     u x z j ,                                                   ",
"                                                          y t q     9 t y q                                                     ",
"                                                                                                                                ",
"                                                                                                                                "
};
