/* XPM */
static char *out[] = {
/* columns rows colors chars-per-pixel */
"64 64 84 1 ",
"  c #98DBA6",
". c #0C0703",
"X c #241A13",
"o c #291F18",
"O c #1D2023",
"+ c #25282C",
"@ c #4F2E1B",
"# c #51321F",
"$ c #453328",
"% c #563624",
"& c #5A3B27",
"* c #5C3D2B",
"= c #5F402E",
"- c #5D493C",
"; c #644533",
": c #664836",
"> c #674A38",
", c #6B4D3B",
"< c #6F503E",
"1 c #70523F",
"2 c #654F42",
"3 c #6F5240",
"4 c #725442",
"5 c #765846",
"6 c #765A49",
"7 c #7B5D4B",
"8 c #7E604E",
"9 c #7E6454",
"0 c #60636A",
"q c #8E4857",
"w c #836553",
"e c #866957",
"r c #8A6A57",
"t c #856C5D",
"y c #8B6D5B",
"u c #92625D",
"i c #916B5E",
"p c #8F715E",
"a c #90715E",
"s c #A35F6B",
"d c #956263",
"f c #8F7464",
"g c #937563",
"h c #977966",
"j c #957B6A",
"k c #9C7E6C",
"l c #9E816E",
"z c #9E8170",
"x c #A0826F",
"c c #A38573",
"v c #A68876",
"b c #AA8976",
"n c #A68B7B",
"m c #A98B79",
"M c #B18F7A",
"N c #AE907F",
"B c #B5927D",
"V c #CD6F94",
"C c #9D908C",
"Z c #BF8A8F",
"A c #AC9484",
"S c #B29483",
"D c #B59B8C",
"F c #BA9F8E",
"G c #B7A092",
"H c #BAA293",
"J c #CC8B9B",
"K c #C4AB9D",
"L c #C7B1A2",
"P c #CAB4A5",
"I c #D2BCAE",
"U c #D9C4B6",
"Y c #DDC7B9",
"T c #DFC9BC",
"R c #FB98C4",
"E c #E4CEC1",
"W c #E8D4C7",
"Q c #EEDBCE",
"! c #F0DCCF",
"~ c #F0DCD0",
"^ c #F9E6DA",
"/ c #FCEADE",
"( c #FFEEE3",
") c #FFF0E4",
/* pixels */
"                                                                ",
"                                                                ",
"                                                                ",
"                                                                ",
"                                                                ",
"                                                                ",
"                                                                ",
"                                                                ",
"                                                                ",
"                                                                ",
"                                                                ",
"                                                                ",
"                                                                ",
"                                                                ",
"                                                                ",
"                                                                ",
"                                                                ",
"                     :;                                         ",
"                  ;47775,;                                      ",
"                :5pcccccp454,,:;;:>,<                           ",
"               >yvclkkklxcckkgye753>;;,,                        ",
"              >gmkkkkkkkxghkkcccccxgw<;;,<                      ",
"              yvklkkkkkkkj7cByhkkklcvlp5;;,<                    ",
"             5ckcMckkkkkkckfnIFayhkkklvcp4=,                    ",
"             pcB9ogckkkkkkchwgGEImpyagklvxw;                    ",
"            ,lcrC0$Bkkklkkkxvw,jP~WPDchypkma                    ",
"            wxB2O+-Bkkkkkkkkkcc*@eFT(^YKSkikh                   ",
"          5dkxmt.Xcckkkkkkkkklc5  %=gGIQ/!IGSy                  ",
"          JRrlhxbBxkkkkkkkkkkkc5      =4gALIF7                  ",
"          JVrlkkxkkkkkkkkkkkkxc5                                ",
"          qslljkkkkkkkkkkkkkkck,                                ",
"          :hcllkkkkkkkkkkkkkkvw*,,,,,;:                         ",
"           4cckkkkkkkkkkkkkkck;9hhhggp83;;                      ",
"            5kmckkkkkkkkkkkcv,4vcclccvvkaw,;                    ",
"             <wpkzcckkkkkkcv4,cckkkkkkklcvj7;                   ",
"               ;,wwgcckccvg,1kckkkkkkkkkkkcmg,                  ",
"                5ke7wykgr7:7cckkkkkkkkkkkkkkvk4                 ",
"               >ymccr753,wkmkkkkkkkkkkkkkkkkkcc3                ",
"               ,gckkccgkcckkkkkkkklkkkkkkkkkkkcc,               ",
"               ,kzkkkkkckkkkkkkkkkkkkkkkkkkkkkkmg:              ",
"               1kkkkkkkkkkkkkkkkkkkkkkkkkkkkkkkkv7              ",
"               ,kckkkkkkkkkkkkkkkllkkkkkkkkkkkkkcg  ,::         ",
"          ,    >gckkkkkkkkkkkkkkkkkkkkkkkkkkkkkkkc14ch:         ",
"         >;;,,=5kkkkkkkkkkkkkklckykkkkkkkkkkkkkkkc7hkYD%        ",
"        ,wj7;,ecckkkkkkkkkkkkkkcegckkkkkkkkkkklkkceykY^e        ",
"         eScrkckkkkkkxkkkkckkkcreckkkkkkkkkkkkkkkcrrcU(G%       ",
"         ,kccckkkkkkkkkkkcgglkl6gxkkkkkkkkkkkkkkkcrecY^K=       ",
"          4cckkkkkkkkkkcmg,gccg7ckkkkkkkkklkkkkkkcyycY^H&       ",
"           5lccllkkkkcvl7:gckcw7cklkkkkkkkkkkkkkkkkgnE/v        ",
"            ,whzcccvcg7,6kckkv77mkkkkkkkkkkkkkkkkkxrS(Y:        ",
"              >47yy8<4wgcckkkc57ckkkkkkkkkkkkkkkkcyc^^w         ",
"                 ;:  4lmkkkkkcw,czkkkklkkkkkkkkkkgcWI6          ",
"                      >ecvzkkcg:kckkkkkkkklkkkkkklgw&           ",
"                        <rlvckc,7vkkkkkkkkkkkkkkck              ",
"                          <egcBf*gckkkkkkkkkkkklv7              ",
"                            ,5ek7>lvkkkkkkkkkkcce               ",
"                             ;;><&>jvckkkkkklccw>               ",
"                               >,g7*7kccccvczg55                ",
"                               ,zNcp,:4werww74                  ",
"                              ,,ekcmmkr777773                   ",
"                                ;,77wihgre                      ",
"                                   ;::,,                        ",
"                                                                ",
"                                                                "
};
