/* XPM */
static char *out[] = {
/* columns rows colors chars-per-pixel */
"64 64 209 2 ",
"   c #FFFFFF",
".  c #573927",
"X  c #5C3E2C",
"o  c #5E3F2C",
"O  c #604230",
"+  c #614230",
"@  c #614331",
"#  c #634431",
"$  c #624532",
"%  c #624433",
"&  c #634433",
"*  c #634533",
"=  c #634633",
"-  c #644534",
";  c #644634",
":  c #654735",
">  c #664734",
",  c #664737",
"<  c #664835",
"1  c #674936",
"2  c #674937",
"3  c #674A37",
"4  c #6A4A36",
"5  c #674A38",
"6  c #684A38",
"7  c #684B38",
"8  c #694B38",
"9  c #684A39",
"0  c #6A4B38",
"q  c #694B3A",
"w  c #6A4C39",
"e  c #6A4C3A",
"r  c #6B4D3B",
"t  c #6B4D3C",
"y  c #6B4E3C",
"u  c #6C4D3C",
"i  c #6C4E3C",
"p  c #6D4E3C",
"a  c #6D4F3C",
"s  c #6D4F3D",
"d  c #6E4F3D",
"f  c #6D4F3E",
"g  c #6D503C",
"h  c #6F513E",
"j  c #70513E",
"k  c #70513F",
"l  c #70523F",
"z  c #71523F",
"x  c #6F5240",
"c  c #705240",
"v  c #705340",
"b  c #715340",
"n  c #725340",
"m  c #725341",
"M  c #725441",
"N  c #735441",
"B  c #725442",
"V  c #725443",
"C  c #725543",
"Z  c #735543",
"A  c #725643",
"S  c #755643",
"D  c #745644",
"F  c #745744",
"G  c #755745",
"H  c #765745",
"J  c #765845",
"K  c #775845",
"L  c #775945",
"P  c #755846",
"I  c #765846",
"U  c #775846",
"Y  c #785946",
"T  c #785948",
"R  c #785A48",
"E  c #795B49",
"W  c #795C49",
"Q  c #7B5C49",
"!  c #7A5C4A",
"~  c #7B5C4A",
"^  c #7B5C4B",
"/  c #7B5D4B",
"(  c #7C5E4C",
")  c #7C5F4C",
"_  c #7C5E4D",
"`  c #7C5F4D",
"'  c #7D5F4D",
"]  c #7E5F4E",
"[  c #7F604D",
"{  c #7E604E",
"}  c #7F604E",
"|  c #7F614E",
" . c #7F614F",
".. c #81624F",
"X. c #82624F",
"o. c #806250",
"O. c #816351",
"+. c #826351",
"@. c #836450",
"#. c #826452",
"$. c #836452",
"%. c #836553",
"&. c #846653",
"*. c #846654",
"=. c #856755",
"-. c #856756",
";. c #866856",
":. c #876957",
">. c #886957",
",. c #886A57",
"<. c #886A58",
"1. c #896A58",
"2. c #896A59",
"3. c #896B59",
"4. c #896C5A",
"5. c #8A6C5A",
"6. c #8A6D5A",
"7. c #8A6C5B",
"8. c #8B6D5B",
"9. c #8C6D5B",
"0. c #8C6E5C",
"q. c #8D6E5D",
"w. c #8D6F5D",
"e. c #8E705E",
"r. c #8F705F",
"t. c #8E715F",
"y. c #8F715F",
"u. c #907260",
"i. c #917361",
"p. c #927362",
"a. c #917462",
"s. c #927462",
"d. c #937563",
"f. c #947664",
"g. c #957664",
"h. c #957765",
"j. c #967866",
"k. c #967867",
"l. c #977967",
"z. c #987967",
"x. c #987A68",
"c. c #997B69",
"v. c #9A7C6A",
"b. c #9B7D6B",
"n. c #9C7E6C",
"m. c #9C7F6D",
"M. c #9D7F6D",
"N. c #9E806E",
"B. c #9F816F",
"V. c #A08270",
"C. c #A18371",
"Z. c #A28472",
"A. c #A38573",
"S. c #A48674",
"D. c #A58775",
"F. c #A68876",
"G. c #A78977",
"H. c #A78978",
"J. c #A88A78",
"K. c #A98B79",
"L. c #A98B7A",
"P. c #AA8C7A",
"I. c #AB8D7B",
"U. c #AB8F7D",
"Y. c #AD8F7D",
"T. c #AE907E",
"R. c #AD9484",
"E. c #B39583",
"W. c #B19686",
"Q. c #B49888",
"!. c #B79D8D",
"~. c #B99E8D",
"^. c #BBA090",
"/. c #BAA293",
"(. c #BDA292",
"). c #BCA494",
"_. c #C8AE9F",
"`. c #CAB1A2",
"'. c #D0B8A9",
"]. c #D1B9AA",
"[. c #D5BDAF",
"{. c #D6C0B2",
"}. c #DFCABD",
"|. c #E0CBBE",
" X c #E1CBBE",
".X c #E0CCBE",
"XX c #E1CDC0",
"oX c #E2CDC0",
"OX c #E2CEC1",
"+X c #E3CEC1",
"@X c #E4D0C3",
"#X c #E6D0C3",
"$X c #E4D1C4",
"%X c #E5D1C5",
"&X c #E6D2C5",
"*X c #E6D3C6",
"=X c #E8D3C6",
"-X c #E9D5C8",
";X c #EAD6CA",
":X c #EBD7CA",
">X c #ECD9CD",
",X c #EDD9CD",
"<X c #EDDACE",
"1X c #EFDCCF",
"2X c #EFDCD0",
"3X c #F0DDD1",
"4X c #F7E4D9",
"5X c #FCE9DE",
"6X c #FFF6EB",
/* pixels */
"                                                                                                                                ",
"                                                                                                                                ",
"                                                                                                                                ",
"                                                                                                                                ",
"                                                                                                                                ",
"                                                                                                                                ",
"                                                                                                                                ",
"                                                                                                                                ",
"                                                                                                                                ",
"                                                                              y                                                 ",
"                                                  l O.                      c.0.                                                ",
"                                                  #.E.>.                  :.T.M.d                                               ",
"                                                  3.J.A.P                 N.V.A.!                                               ",
"                                                2 y.A.F.u.              ;.G.b.D.o.                                              ",
"                                                9 d.Z.N.B.A             f.A.n.S.#.                                              ",
"                                                w h.C.b.G.2.          I Z.M.n.S.%.                                              ",
"                                                q f.C.n.A.s.          >.F.n.n.S.%.                                              ",
"                                                6 s.Z.n.N.B.C         d.A.n.n.S.%.                                              ",
"                                                , e.S.n.n.D.O.        l.V.n.n.S.#.                                              ",
"                                                  3.D.n.n.D.5.        v.B.n.n.D.o.                                              ",
"                                                  =.S.n.n.A.p.      x b.B.n.n.A./                                               ",
"                                                  o.D.n.n.A.a.      c b.B.n.N.N.B                                               ",
"                                                  J C.M.n.S.t.        x.V.n.Z.h.w                                               ",
"                                                  7 f.Z.n.D.3.        h.Z.n.D.3.*                                               ",
"                                                    <.F.b.K.*.        h.Y.n.D.#.                                                ",
"                                                    ) G.G.x.3 = Z J a c ;.A.G.V                                                 ",
"                                                      c.;.i ' j.N.C.N.5.G { #.                                                  ",
"                                                      6 R v.J.Z.N.M.N.S.J.s.e                                                   ",
"                                                    $ o.J.C.b.n.n.n.n.n.b.D.C.b                                                 ",
"                                                     .J.N.n.n.n.n.M.n.n.n.b.D.x.7                                               ",
"                                                  Z C.V.b.n.b.V.S.Z.A.n.b.n.b.P.*.                                              ",
"                                                  *.Z.M.n.n.S.m.m o ;.H.B.b.M.N.i.                                              ",
"                                                g E l.V.b.D.a.+ -.R.8 U S.N.C.e.( /                                             ",
"                                                O ( A.n.D.i.@ 9.#X6X`.# { G.M.V.Z *                                             ",
"                                                v N.V.N.M.Z .._.2XOX1XU.> e.A.Z.c.3                                             ",
"                                              u b.S.b.D.%.H P.XX&X}.,X].X./ Z.b.G.s.<                                           ",
"                                              3.K.b.n.Z.+.@.(.<X|.|.@X+XL.U s.B.n.J.O.                                          ",
"                                            - u.S.n.n.n.$.g.{.;X|.|..X;X~.z <.Z.n.D.y.&                                         ",
"                                            e j.C.n.n.B.$.c.|.%X|.|. X;X^.n 8.C.n.V.b.t                                         ",
"                                            8.A.n.n.n.S.&.[ [.>X}.|.|.:XW.Y c.M.n.b.S.y.1                                       ",
"                                          y n.Z.n.n.n.V.i.j Q.3XoX}.*X=X8.| S.n.n.n.M.S.T                                       ",
"                                          M N.B.n.n.n.b.D.=.S '.4X-X5X!.4 k.V.n.n.n.n.S._                                       ",
"                                          k y.M.n.n.n.n.N.Z.~ N ).$X/.0 e.D.b.n.n.n.N.N.R                                       ",
"                                          f ! l.V.n.n.n.b.B.A.,.K O.Q s.S.b.n.n.n.n.Z.8.e                                       ",
"                                            r u.S.n.n.n.n.M.M.A.B.z.C.V.N.M.n.n.n.N.B.B                                         ",
"                                            % :.F.n.n.n.n.x.M.n.n.M.n.B.h.j.N.n.n.Z.d.5                                         ",
"                                              W A.M.n.n.C.8.u.V.M.n.M.M.;.x.M.n.n.D.0.                                          ",
"                                              t c.V.n.n.A.*.5.Y.Z.S.F.N.;.M.n.n.n.D.#.                                          ",
"                                              ; 8.S.n.n.F.=.( s.{ } 7.y.O.n.M.n.M.B.F                                           ",
"                                                =.K.A.B.V.;.(         p c d.S.C.D.b.h                                           ",
"                                                *.B.d.M.8.{ 4.          p 3.Z.h.v.s.s                                           ",
"                                                0.o.. *.e.#.              o.e.2 6 0.D                                           ",
"                                                q.{ X I l.u.              %.o.: ; w.                                            ",
"                                                L ;.{ 5.N.w.              9.v.( ' *.                                            ",
"                                                  5.b.N.G.6.              q.I.x.M.s.                                            ",
"                                                  1.Y.D.P.5.              ) K.F.B.`                                             ",
"                                                    ^ r.l.M                 | ]                                                 ",
"                                                        _                                                                       ",
"                                                                                                                                ",
"                                                                                                                                ",
"                                                                                                                                ",
"                                                                                                                                ",
"                                                                                                                                ",
"                                                                                                                                "
};
