/* XPM */
static char *out[] = {
/* columns rows colors chars-per-pixel */
"64 64 209 2 ",
"   c #FFFFFF",
".  c #5A3B28",
"X  c #604230",
"o  c #614331",
"O  c #644533",
"+  c #644633",
"@  c #634635",
"#  c #644634",
"$  c #654634",
"%  c #644735",
"&  c #674835",
"*  c #674836",
"=  c #674837",
"-  c #684936",
";  c #664938",
":  c #684938",
">  c #684A38",
",  c #694A38",
"<  c #684B38",
"1  c #694B38",
"2  c #694A3A",
"3  c #694B3A",
"4  c #6B4C39",
"5  c #694C3A",
"6  c #6A4C3A",
"7  c #6B4C3A",
"8  c #6B4D3B",
"9  c #6D4D3A",
"0  c #6C4E3C",
"q  c #6E4E3D",
"w  c #6E4F3D",
"e  c #6D503D",
"r  c #6E503D",
"t  c #6D503E",
"y  c #6E503E",
"u  c #70503D",
"i  c #72523F",
"p  c #6E5140",
"a  c #6F5140",
"s  c #705140",
"d  c #705240",
"f  c #705241",
"g  c #705341",
"h  c #715341",
"j  c #735340",
"k  c #725342",
"l  c #715441",
"z  c #735542",
"x  c #735443",
"c  c #735643",
"v  c #745442",
"b  c #755543",
"n  c #745643",
"m  c #745644",
"M  c #745645",
"N  c #755645",
"B  c #755745",
"V  c #765745",
"C  c #755845",
"Z  c #765946",
"A  c #765847",
"S  c #775947",
"D  c #785947",
"F  c #785A48",
"G  c #795B48",
"H  c #785B49",
"J  c #7A5B49",
"K  c #7B5B49",
"L  c #795C49",
"P  c #7A5C49",
"I  c #7B5C49",
"U  c #7A5C4A",
"Y  c #7B5D4B",
"T  c #7C5C49",
"R  c #7C5D4A",
"E  c #7D5E4B",
"W  c #7B5D4C",
"Q  c #7C5E4C",
"!  c #7D5F4D",
"~  c #7D5F4E",
"^  c #7D604D",
"/  c #7E604D",
"(  c #7E604E",
")  c #7F604F",
"_  c #7E614F",
"`  c #7F614F",
"'  c #806150",
"]  c #806250",
"[  c #816250",
"{  c #816350",
"}  c #816351",
"|  c #816452",
" . c #836452",
".. c #836553",
"X. c #846654",
"o. c #856755",
"O. c #866755",
"+. c #866856",
"@. c #866857",
"#. c #876957",
"$. c #886957",
"%. c #886A58",
"&. c #896B59",
"*. c #8A6C59",
"=. c #8A6C5A",
"-. c #8B6D5A",
";. c #8B6C5B",
":. c #8B6D5B",
">. c #8C6D5B",
",. c #8D6E5B",
"<. c #8C6E5C",
"1. c #8D6E5C",
"2. c #8D6E5D",
"3. c #8D6F5D",
"4. c #8E705E",
"5. c #8F715E",
"6. c #8F715F",
"7. c #90725F",
"8. c #907260",
"9. c #907261",
"0. c #917361",
"q. c #927361",
"w. c #917362",
"e. c #927462",
"r. c #937462",
"t. c #927563",
"y. c #937563",
"u. c #947564",
"i. c #947664",
"p. c #947765",
"a. c #957765",
"s. c #967765",
"d. c #967866",
"f. c #977967",
"g. c #977A68",
"h. c #987A68",
"j. c #997B69",
"k. c #9A7C6A",
"l. c #9B7C6A",
"z. c #9B7D6B",
"x. c #9B7F6E",
"c. c #9C7E6C",
"v. c #9D7E6C",
"b. c #9D7F6D",
"n. c #9F806D",
"m. c #9E806E",
"M. c #9F816F",
"N. c #9E8270",
"B. c #9F8270",
"V. c #A08270",
"C. c #A18371",
"Z. c #A18472",
"A. c #A28472",
"S. c #A38573",
"D. c #A18777",
"F. c #A48674",
"G. c #A58775",
"H. c #A68876",
"J. c #A78977",
"K. c #A88A78",
"L. c #A98B79",
"P. c #AA8C7A",
"I. c #AB8D7B",
"U. c #AC8E7C",
"Y. c #AD8F7D",
"T. c #AF917F",
"R. c #B09280",
"E. c #B59988",
"W. c #B99C8C",
"Q. c #B89D8D",
"!. c #BBA090",
"~. c #C5AC9D",
"^. c #C6AC9D",
"/. c #C7AD9D",
"(. c #CCB4A5",
"). c #D6BFB0",
"_. c #D8C1B3",
"`. c #DCC6B8",
"'. c #DCC7B9",
"]. c #DDC8BB",
"[. c #DEC9BB",
"{. c #DEC9BC",
"}. c #DFCABD",
"|. c #E0CBBD",
" X c #E0CBBE",
".X c #E1CCBE",
"XX c #E1CCBF",
"oX c #E3CEC1",
"OX c #E2CEC2",
"+X c #E6D1C3",
"@X c #E6D2C5",
"#X c #E9D3C6",
"$X c #E8D4C8",
"%X c #E8D5C8",
"&X c #E9D6C9",
"*X c #EAD6C9",
"=X c #EAD6CA",
"-X c #EAD7CA",
";X c #EAD7CB",
":X c #EBD7CB",
">X c #ECD7C9",
",X c #EDD9CE",
"<X c #EDDACE",
"1X c #EEDBCF",
"2X c #EFDCD0",
"3X c #F1DED2",
"4X c #F2DFD4",
"5X c #FCE8DC",
"6X c #FEECE1",
/* pixels */
"                                                                                                                                ",
"                                                                                                                                ",
"                                                                                                                                ",
"                                                                                                                                ",
"                                                                                                                                ",
"                                                                                                                                ",
"                                                                                                                                ",
"                                                                                                                                ",
"                                                                                                                                ",
"                                                                                                                                ",
"                                                                                                                                ",
"                                                                                                                                ",
"                                                                              F f                                               ",
"                                                  z *.                      w.I.&.                                              ",
"                                                  +.R.S.u.                z.K.F.e.<                                             ",
"                                                  =.G.b.P.d.            4.L.z.C.a.6                                             ",
"                                                  =.G.c.c.J.|         A S.m.c.A.i.2                                             ",
"                                                  &.G.c.c.F.r.        1.H.z.c.S.6.;                                             ",
"                                                  +.F.c.c.C.d.        a.A.c.c.G.&.@                                             ",
"                                                  ..G.c.c.C.d.        d.C.c.c.G.o.                                              ",
"                                                  W F.c.c.C.d.        d.C.c.c.G.]                                               ",
"                                                  h b.m.c.A.i.        d.S.c.b.V.M                                               ",
"                                                  & 8.A.m.U.7.        =.L.A.C.y.>                                               ",
"                                                    o.Y.A.` 3 A o.%.} C h 6.R.%.                                                ",
"                                                    { j.y S e.F.H.H.H.m.=.B +.^                                                 ",
"                                                      6 <.K.S.c.c.c.c.b.H.A.( #                                                 ",
"                                                    > i.K.c.c.c.c.c.c.c.z.M.L.'                                                 ",
"                                                  + 8.L.z.c.c.c.c.c.c.c.c.c.V.C.x                                               ",
"                                                  Y H.c.c.c.c.c.c.c.c.c.c.c.z.K.=.                                              ",
"                                                O <.H.c.c.c.c.c.c.c.c.c.c.c.c.V.k.r                                             ",
"                                                0 f.C.c.c.c.c.c.c.c.c.c.c.c.c.c.S.U                                             ",
"                                                e k.V.c.c.c.c.c.c.c.c.c.c.c.c.c.G.)                                             ",
"                                                > 0.F.c.c.c.c.c.c.c.c.c.c.c.c.b.J.`                                             ",
"                                                  o.A.b.c.c.c.c.c.c.c.c.c.c.b.j.S.=.                                            ",
"                                                  F d.C.c.c.c.c.c.c.c.c.c.c.C.:...J.g                                           ",
"                                                5 F b.b.c.c.c.c.c.c.c.c.c.c.V.d.8 V.2.                                          ",
"                                                o =.G.z.c.c.c.c.A.G.m.z.c.c.c.J.B ` i.                                          ",
"                                                S F.b.c.c.z.M.J.:.D v.G.z.c.c.M.c.m r                                           ",
"                                              8 j.S.z.c.z.A.C.n 7 H $ 0.H.z.c.z.K.3.X                                           ",
"                                              o.K.z.c.c.V.M.d - ~.5Xx.. t.H.z.c.c.H.Q                                           ",
"                                              6.F.c.c.c.G.Q 9 W.3X<X>X5., k.M.c.c.H.3.#                                         ",
"                                            * 8.S.c.c.S.<.k n._.:X{.1X/.i _ H.c.c.S.8.%                                         ",
"                                            , f.C.c.c.F.] E E.;XXX X$X'.l.J h.m.c.m.c.s                                         ",
"                                            [ F.c.c.c.m...,.(.,X|. XXX%XE.j =.A.c.z.J.$.                                        ",
"                                            y.F.c.c.c.b. .k.[.@X X X.X=X!.i &.A.c.c.V.k.q                                       ",
"                                          t k.V.c.c.c.S...>.`.&X X X X-XQ.b y.M.c.c.c.A.G                                       ",
"                                          l m.m.c.c.c.S.%.j ^.2X}. XOX*XN.R C.c.c.c.c.F./                                       ",
"                                          r j.V.c.c.c.c.C.S -.#X1X].4X).u :.S.c.c.c.b.A.H                                       ",
"                                            e.G.z.c.c.z.A.g.4 p.+X6XoX( K S.c.c.c.c.C.h.0                                       ",
"                                            ( H.b.c.c.c.z.F.j.v ..D.@.I Z.M.c.c.c.z.K.:.                                        ",
"                                              <.J.z.c.z.m.V.B.F.<.T q.G.A.m.z.c.z.A.b.r                                         ",
"                                              1 h.A.c.V.6.=.V.z.A.F.b.V.4.3.V.c.b.F.L                                           ",
"                                                N G.c.S.#.B I.H.b.b.H.T.Y } H.c.G.O.                                            ",
"                                              x ;.c.b.H.&.Z s.#.c   X.p.~ } H.c.C.9.a                                           ",
"                                              a.U.k.b.S.P                 t k.C.k.I.a.+                                         ",
"                                              X.P.H.U.6.                    &.U.H.P.X.                                          ",
"                                                ! e.%.w                     p #.e.! :                                           ",
"                                                  V q                           V =                                             ",
"                                                                                                                                ",
"                                                                                                                                ",
"                                                                                                                                ",
"                                                                                                                                ",
"                                                                                                                                ",
"                                                                                                                                "
};
