/* XPM */
static char *out[] = {
/* columns rows colors chars-per-pixel */
"64 64 88 1 ",
"  c #98DBA6",
". c black",
"X c #2B221D",
"o c #45372F",
"O c #543522",
"+ c #593926",
"@ c #5D3E2B",
"# c #5E402E",
"$ c #514137",
"% c #60412E",
"& c #644534",
"* c #664936",
"= c #694937",
"- c #6B4D3B",
"; c #6E503E",
": c #71513E",
"> c #514640",
", c #5F5149",
"< c #555253",
"1 c #735543",
"2 c #765947",
"3 c #755A4A",
"4 c #7B5D4B",
"5 c #7F614F",
"6 c #7A6559",
"7 c #8F5B5A",
"8 c #80624F",
"9 c #826452",
"0 c #866956",
"q c #8B6D5B",
"w c #8F715F",
"e c #91725F",
"r c #9D5366",
"t c #876E61",
"y c #937563",
"u c #967966",
"i c #987967",
"p c #967A69",
"a c #9C7E6C",
"s c #AC6675",
"d c #AD6B77",
"f c #A77273",
"g c #A27A70",
"h c #9E816E",
"j c #9B8172",
"k c #A0816E",
"l c #A8856F",
"z c #A38573",
"x c #A88771",
"c c #A68876",
"v c #AB8A76",
"b c #A48A79",
"n c #A98B79",
"m c #AC907F",
"M c #B8947F",
"N c #898A92",
"B c #AD9484",
"V c #B29786",
"C c #BA9782",
"Z c #BD9983",
"A c #B59D8E",
"S c #B99F8F",
"D c #B79F91",
"F c #BEA697",
"G c #BFA798",
"H c #C0A796",
"J c #C5AD9F",
"K c #C8AD9C",
"L c #EF9BBC",
"P c #F297BD",
"I c #CAB3A4",
"U c #CDB6A8",
"Y c #D2BCAE",
"T c #D7C0B3",
"R c #D9C2B4",
"E c #DDC6B9",
"W c #DEC8BB",
"Q c #E0CBBD",
"! c #E3CEC1",
"~ c #E7D2C5",
"^ c #E9D3C6",
"/ c #EAD5C9",
"( c #EDD9CD",
") c #F2DED2",
"_ c #F9E6DA",
"` c #FCE9DD",
"' c #FFF2E6",
"] c #FFF8ED",
/* pixels */
"                                                                ",
"                                                                ",
"                                                                ",
"                                                                ",
"                                                                ",
"                                                                ",
"                                                                ",
"                                                                ",
"                                                                ",
"                                                                ",
"                                                                ",
"                                                                ",
"                                                                ",
"                       ----                                     ",
"                    ---=-=-----                                 ",
"           *--1-&&&&&=-----&&&---                               ",
"         -9ypa022490wyuppiyq91-&&-                              ",
"       &0hbxzzuazzzcxzzgkzxzzjpe2=                              ",
"      -unjaapazypcaeeeuuaiipaakzzi8                             ",
"     &ucaaaaaaau80AUIHBzappuiiyyyii0                            ",
"     0caaaaaaaaza90yjSY^//~~!QQWERYK8                           ",
"    -azaxaaaaahiacj9:--qzBDGJIIIJFFp                            ",
"    0zak5hhaaaaaaaaxcn4O  +@@#&@@                               ",
"    qzxt<6xaaaaaaaaaazy=                                        ",
"    wzx,N>laaaahaaaaajp-     &&&&                               ",
"    qbZX.oCaaaaaaaaaaza- =249qqeq0541&                          ",
"    uzc3$hzaaaaaaaaaaxy&2ezzczczxzbzaq2&                        ",
"   7ahpxMziaaaaaaaaaaz8-zbhiaaaaaaaakbzy1                       ",
"  0Psuhhihaaaaaajaaaaz-9caaaaaaaaaaaaaazz0&                     ",
"  4Lduphaaahihaaaaapce&pzaaaaaaaaaaaaaaazcq&   &                ",
"  -rfhhhaaaihaaaaaazz&4caaaaaaaaaaaaaaaaaanq  -4%@              ",
"   &anhpaaahaahaaazc1-zzaaaaaaaaaaaaahaaaahb9@qcS4+             ",
"    -yzzzzzxzzzahng-=zzaaaaaaaaaaaaaaaaaahiji2ip^)1             ",
"     *49904240yau5*1azaaaaaaaaaaahaaaaaaaahazqyuI'Y&            ",
"         &-0999421qzzaaaaaaaazpaaaaaaahaaaaazyqyG(_a            ",
"          9mzzzpizzaaaaaaaapzuuaaaaaaaaahihaii9ym~_B            ",
"          5zaaahjaaaaaaaaaazu0aaaaaaaaaaahiahh0waR_B            ",
"          4zaaaahaaaaaaaaaaz9qzaaaaaaaaaaahaihhuuU'b            ",
"          1izahaaaaaaaaaaaai9haaaaaahaaaaahihhhuyW)4            ",
"          &qzaaaaaaaaaaaaaz90caaaaaaaaaahihhhihwV]b             ",
"           4zaaaaaaaaaakaax29zaaahaaaaaaahaauhec)A              ",
"          &;haaaaaaaaahiaaz10zaaaaaaaaaaaaaahhhz                ",
"      *- &=yzaaaahaaabe2zaz10zaaaaaaaaaaaaaahuj7                ",
"      1-&&yciaaaaaaakc-4zaz13caaaaaaaaaaaaaahhc2                ",
"     3ziquzaaaaaaaizc1-zhab0&azaaaaaaaaaaaaaazuq9               ",
"      ymzzpaaaaaahcz--azaaka&5caaaaaaahaaaaaazqacq&             ",
"       eczaaaaaazbq-1jzaiaib5@pcaaaaaaaaaaaacqqchcy&            ",
"        9ujxzzzzu4@-znxzzhahz;#ickaaaaaaaazcy&&ybacq&           ",
"         =124444-&  ;5qypjxznn1*wxbkaaaazbzq***&yzac4&          ",
"                       =:2490wq*#4epzzzhuq2  --=&izzj;          ",
"                                 &&-2442-     --&1zzcw&         ",
"                                                  4azz1*        ",
"                                                   -22-         ",
"                                                                ",
"                                                                ",
"                                                                ",
"                                                                ",
"                                                                ",
"                                                                ",
"                                                                ",
"                                                                ",
"                                                                ",
"                                                                ",
"                                                                "
};
