/* XPM */
static char *out[] = {
/* columns rows colors chars-per-pixel */
"64 64 88 1 ",
"  c #FFFFFF",
". c black",
"X c #2B221D",
"o c #45372F",
"O c #543522",
"+ c #593926",
"@ c #5D3E2B",
"# c #5E402E",
"$ c #514137",
"% c #60412E",
"& c #644534",
"* c #664936",
"= c #694937",
"- c #6B4D3B",
"; c #6E503E",
": c #71513E",
"> c #514640",
", c #5F5149",
"< c #555253",
"1 c #735543",
"2 c #765947",
"3 c #755A4A",
"4 c #7B5D4B",
"5 c #7F614F",
"6 c #7A6559",
"7 c #8F5B5A",
"8 c #80624F",
"9 c #826452",
"0 c #866956",
"q c #8B6D5B",
"w c #8F715F",
"e c #91725F",
"r c #9D5366",
"t c #876E61",
"y c #937563",
"u c #967966",
"i c #987967",
"p c #967A69",
"a c #9C7E6C",
"s c #AC6675",
"d c #AD6B77",
"f c #A77273",
"g c #A27A70",
"h c #9E816E",
"j c #9B8172",
"k c #A0816E",
"l c #A8856F",
"z c #A38573",
"x c #A88771",
"c c #A68876",
"v c #AB8A76",
"b c #A48A79",
"n c #A98B79",
"m c #AC907F",
"M c #B8947F",
"N c #898A92",
"B c #AD9484",
"V c #B29786",
"C c #BA9782",
"Z c #BD9983",
"A c #B59D8E",
"S c #B99F8F",
"D c #B79F91",
"F c #BEA697",
"G c #BFA798",
"H c #C0A796",
"J c #C5AD9F",
"K c #C8AD9C",
"L c #EF9BBC",
"P c #F297BD",
"I c #CAB3A4",
"U c #CDB6A8",
"Y c #D2BCAE",
"T c #D7C0B3",
"R c #D9C2B4",
"E c #DDC6B9",
"W c #DEC8BB",
"Q c #E0CBBD",
"! c #E3CEC1",
"~ c #E7D2C5",
"^ c #E9D3C6",
"/ c #EAD5C9",
"( c #EDD9CD",
") c #F2DED2",
"_ c #F9E6DA",
"` c #FCE9DD",
"' c #FFF2E6",
"] c #FFF8ED",
/* pixels */
"                                                                ",
"                                                                ",
"                                                                ",
"                                                                ",
"                                                                ",
"                                                                ",
"                                                                ",
"                                                                ",
"                                                                ",
"                                                                ",
"                                                                ",
"                                                                ",
"                                                                ",
"                               ---1                             ",
"                           ;----=*==--                          ",
"                         ---&&&=-1--*&&&&&-1;-*                 ",
"                        -&&-190ypaayyw095220hpe9-               ",
"                        =2qihzzzkkkzzzczzzkyhzzcj0&             ",
"                       5izzhaaaaaiyyyeyanayjhaaazni=            ",
"                      0iiyyuuuyiuazVHIUV94yhaaaaaany*           ",
"                     4KRREWW!!~^^/^TAjy09azaaaaaaaav0           ",
"                      pSFJIIIJFABzq;-:0hchaaaaaaazaza-          ",
"                         @@&@@@+  O3nczaaaaaaaaha8kaz0          ",
"                                  *yzaaaaaaaaaax6<txcq          ",
"                         *&&&     -pjaaaaaaaaaal>N,xzw          ",
"                    &14500eq0942& 1akaaaaaahaaaCo.XZcq          ",
"                  *2qazcczzzzczzy2&yzaaaaaaaaaakh$3czu          ",
"                 1yzzzaaahaaaaahzc=5caaaaaaaaaaazMvphg7         ",
"               &0zzhaaaaaaaaaaaaaz9-zhaaaaaaaaaaaaaayfL9        ",
"          &   *wvjaaaaaaaaaaaaaaaha&wzaaaaaaaaaaaaaahdL4        ",
"        @%4-  wnaaaaaaaaaaaahaaaaaz5&zzaaaaaaaaaaaaahfr*        ",
"       +4Sn0@9caaaaaaaaaaaaaaaaaaazz-1zzaaahaaaaaaahva*         ",
"       1)^ia1pzaaaaaaaaaaaaaaaaaaaazh&-hnjakzzzzzczzy-          ",
"      &Y'Iye0zaaaaaaaaaaaaaaaaaaaaaazz2&5yay08459984*           ",
"      a_(Hyqyzaaaaaaaaaaaaaazaaaaaaaazz01245990-%               ",
"      B_^ny9uaaaaaahaaaaaaayukaaaahaaahzzaazzzn9                ",
"      B`Rjy0zaaaaaaahaaaaaah0aaaaaaaaaaaakhaaaz5                ",
"      b'Uyaahaaaaaahaaaaaaazq5zaaaaaaaaaaaaaaaz4                ",
"      4)Eyaaaahaaaaaaaaaaaaah9yhaaaaaaaaaaaaazh:                ",
"       c]Vqaaaaaaaaaaaaaaaaac99zaaaaaaaaaaaaazq&                ",
"        A)cyhaaaaaaaaaaaaaaaz02zaazaaaaaaaaakz2                 ",
"          zaaaaaaaaaaaaaaaaaz01zhaaaaaaaaaaaaj-&                ",
"          9caaaaaaahaaaaaaaac91zaz2qzaaaaaaaazy*& -*            ",
"          2zaaaaaaaaaaaaaaaac41zav4-chaaaaaaaacy&&-1            ",
"         9qazaaaaaaaaaaaaaaha&0zaaz-1zzaaaaaaaazy0az3           ",
"       &qna0zaaaaaaahaaaaaan4&hhaazj=-znaaaaaaaazzny            ",
"      &ynan00vaaaaaaaaaaaacp@5caaaazz1-qczhaahhhzny             ",
"     &0nacy&&ynjahaaaaaaana#;zhaazzznz-@4yzzzzzay9              ",
"    &4zazy&***qzczaaaahzzy&1nnzzhayq5;  &=444441*               ",
"    ;hzza&*--  2quzzzzaw4#*qq0952;=                             ",
"   &wnzz1&--     -2442-&&                                       ",
"  &1zza3                                                        ",
"   -34=                                                         ",
"                                                                ",
"                                                                ",
"                                                                ",
"                                                                ",
"                                                                ",
"                                                                ",
"                                                                ",
"                                                                ",
"                                                                ",
"                                                                ",
"                                                                "
};
