/* XPM */
static char *out[] = {
/* columns rows colors chars-per-pixel */
"64 64 87 1 ",
"  c #98DBA6",
". c #000205",
"X c #0C0704",
"o c #1F1814",
"O c #3E2D22",
"+ c #3D3430",
"@ c #4D2D1C",
"# c #563624",
"$ c #583A27",
"% c #5E3F2C",
"& c #5E402E",
"* c #51443E",
"= c #624432",
"- c #674937",
"; c #694937",
": c #674F38",
"> c #6A4C3A",
", c #6E503E",
"< c #6D594C",
"1 c #735543",
"2 c #765947",
"3 c #755C4E",
"4 c #7B5D4B",
"5 c #7E604E",
"6 c #7E6250",
"7 c #756258",
"8 c #8D4E56",
"9 c #80624F",
"0 c #836553",
"q c #876956",
"w c #896A57",
"e c #8B6D5B",
"r c #8E705E",
"t c #91715F",
"y c #B35D7A",
"u c #946360",
"i c #996266",
"p c #976E65",
"a c #8F7B61",
"s c #937462",
"d c #977967",
"f c #997A67",
"g c #9B7068",
"h c #967A6A",
"j c #9C7E6C",
"k c #9E816F",
"l c #9C8272",
"z c #A2826F",
"x c #A38573",
"c c #A68976",
"v c #AA8974",
"b c #A68C7C",
"n c #A98B79",
"m c #B08E7A",
"M c #AE917F",
"N c #B3917C",
"B c #7E7F86",
"V c #8A8485",
"C c #AD9283",
"Z c #B29482",
"A c #B89580",
"S c #B49A8C",
"D c #BBA192",
"F c #CA989B",
"G c #C5AC9D",
"H c #DC80A5",
"J c #ED8AB5",
"K c #CDB6A7",
"L c #D2BAAC",
"P c #D4BEB1",
"I c #D5C0B3",
"U c #DAC3B5",
"Y c #DCC6B9",
"T c #DDC8BB",
"R c #E1CCBF",
"E c #E4CFC2",
"W c #E6D1C4",
"Q c #EBD7CB",
"! c #EEDBCF",
"~ c #F0DBCF",
"^ c #F2DFD3",
"/ c #F7E4D8",
"( c #FCEADF",
") c #FFECE0",
"_ c #FFF1E5",
"` c #FFF7EC",
"' c #FFF8ED",
/* pixels */
"                                                                ",
"                                                                ",
"                                                                ",
"                                                                ",
"                                                                ",
"                                                                ",
"                                                                ",
"                                                                ",
"                                                                ",
"                                                                ",
"                                                                ",
"                                                                ",
"                                                                ",
"                           2>                                   ",
"                      >> ,tCl                                   ",
"                     >>=4xsLS                                   ",
"                    ,>=4cfxW0                                   ",
"                    >=2cxrYL                                    ",
"                   >=1xxeb_l                                    ",
"                  >-;hchsYW>                                    ",
"                  >=enjeZ'C                                     ",
"                 >=2xjjtYQ>                                     ",
"                 >=tcjtM`b                                      ",
"                 =4xjjeRT%                                      ",
"                >-ecjtS(0                                       ",
"                >>hxht~S                                        ",
"                =0cjwKY%                        ->-%#           ",
"                =scsCE1              =;>>>>-    1eDPb>          ",
"               =,zjsPd            =-2qsddddsq1= exD_)W5         ",
"             =>>qcdGh@          =,qdxcxkxxlxczs,1xtDQ/R1        ",
"           &2exeecddq1=       =;qjcxjjjjjjjjjjcx02fsG^(C        ",
"          -qxcx0djeenc0=;    =2hcxjjjjjjjjjjjjjkcw2fsL(K>       ",
"         -tckjjszhjxhxne-   =0cxjjjjjjjjjjjjjzjjjne4tzEQ0       ",
"        =rnjjjjkjjjjjjjn0= =0njjjjjjjjjjjjjjjjjjjjcsdtG^6       ",
"        4ckjjjjjjjjjjjjxj1%4cjjjjjjjjjjjjjjjjjjjjjjljeLP        ",
"       -dxjjjjjjjjjjjjjjcq-jxjjjjjjjjjjjjjjjjjjjjjjjjsLl        ",
"       2zjjjjjjjjjjjjjjjxs>fljjjjjjjjjjjjjjjjjjjjjjjjce         ",
"       9cjjkkkjjjjjjjjjjjh;wxjjjjjjjjjkjjjjjjzjjjjjjjcr         ",
"       0cjkzzzjfjjjjjjjjzj>qcjjjjjjjjjjjjjjjjjjjjjjjjjx4        ",
"       0czh*7zkkjjjjjjjjjh>ecjjjjjjjjjjjjjjjjjjjjjjjjjc0        ",
"       4xx2VBONkjjjjjjjjxs>sxjjjjjjjjjjjjjjjjjjjjjjjjjxq        ",
"       1kzv+.oNkjjjjjjjjxe>kjjjjjkkddjjjjjjjjjjjjjjjjjx0        ",
"        rxN3X<Mjjjjjjjjjc12cjjjjjjksexjjjjjjjjjjjjjjjjxq        ",
"        ,kkvzxjjjjjjjjjns=dxjjjjjjksqxjjjjjjjjjjjjjjjkj2        ",
"         axkxjjjjjjjjjcx=4njjjjjjjjj0hjjjjjjjjjjjjjjjce-        ",
"         8gljjjjjjjlnzq-4cjjjjjjjjhc0wcjjjjjjjjjjjjjxj5         ",
"        1Hysjjjjjxcs442eckjjjjjjjjjxs>jxjjjjjjjjjjjkn52         ",
"         FJukjjxcf420dcxjjjjjjjjjxjjx4>cchjjjjjjjhxn55w         ",
"         :ipxxxjq>$sMkjjjjjjjjjjjehjjx1>jnljjjjjzcx21j1         ",
"           ,454>  =4cjjjjjjjjjjjc20xjxx>=0hxcccchq>,n0          ",
"                   -scjjjjjjjjjjc42cjjzc0;=20eq2>>wZr=          ",
"                    >jchjjjjjjjjx10cjjjjxxs2=&%>txZs=           ",
"                     ,jxjjjjjjjxf>sxjjjlcxh4>>=enns=            ",
"                      >dxjjjjjjc0>xjzxcje  ;,>=0ne-             ",
"                      %qcjjjjjzj-encjs0    >>  >4-              ",
"                      -sxjjjjjce-de4           >-               ",
"                     =1xjjjjjxj>-                               ",
"                  >>==ecjjjjxn2=                                ",
"                   1efjjjjkcj2-                                 ",
"                   eSnxzccj0;=                                  ",
"                    4qdde41=                                    ",
"                       2>                                       ",
"                                                                ",
"                                                                "
};
