/* XPM */
static char *out[] = {
/* columns rows colors chars-per-pixel */
"64 64 103 2 ",
"   c #FFFFFF",
".  c black",
"X  c #15110D",
"o  c #583726",
"O  c #5A3927",
"+  c #5D3D2B",
"@  c #473930",
"#  c #4B3C33",
"$  c #5F402D",
"%  c #5D4637",
"&  c #5C4B3F",
"*  c #60412E",
"=  c #634532",
"-  c #684734",
";  c #674936",
":  c #684937",
">  c #674C3C",
",  c #6B4C3A",
"<  c #6E503E",
"1  c #70523F",
"2  c #454242",
"3  c #584C46",
"4  c #5C534F",
"5  c #735442",
"6  c #775947",
"7  c #795947",
"8  c #775948",
"9  c #7B5D4B",
"0  c #635C5A",
"q  c #7F604E",
"w  c #7D6556",
"e  c #676568",
"r  c #776B66",
"t  c #81614E",
"y  c #836553",
"u  c #876957",
"i  c #886957",
"p  c #8C6659",
"a  c #876B58",
"s  c #8B6D5B",
"d  c #8E715F",
"f  c #91725F",
"g  c #946360",
"h  c #916F60",
"j  c #8F7363",
"k  c #937563",
"l  c #987266",
"z  c #967A66",
"x  c #987A67",
"c  c #977C69",
"v  c #9C7E6C",
"b  c #A56C71",
"n  c #A87074",
"m  c #9D816E",
"M  c #9C8270",
"N  c #A3826E",
"B  c #A28472",
"V  c #A68876",
"C  c #A98976",
"Z  c #A68B7B",
"A  c #AA8C7A",
"S  c #B08E78",
"D  c #AE907E",
"F  c #B5937E",
"G  c #C06F89",
"H  c #C2758C",
"J  c #CF7D99",
"K  c #D37A9C",
"L  c #87868B",
"P  c #8B8689",
"I  c #AB9181",
"U  c #AF9788",
"Y  c #B39582",
"T  c #B89682",
"R  c #B29887",
"E  c #BE9984",
"W  c #B49B8B",
"Q  c #BBA394",
"!  c #BDA698",
"~  c #D3839E",
"^  c #C4AB9C",
"/  c #E995B5",
"(  c #CBB2A3",
")  c #CFB7A8",
"_  c #D5BDAF",
"`  c #D7C0B2",
"'  c #DAC4B6",
"]  c #DDC7B9",
"[  c #DFCABC",
"{  c #E0CBBE",
"}  c #E3CEC1",
"|  c #E6D1C4",
" . c #E9D4C7",
".. c #EBD7CA",
"X. c #EDDACE",
"o. c #F1DBCF",
"O. c #F2DED2",
"+. c #F5E1D4",
"@. c #F8E6DA",
"#. c #FCE9DD",
"$. c #FFCBEB",
"%. c #FFEEE2",
"&. c #FFF5EA",
/* pixels */
"                                                                                                                                ",
"                                                                                                                                ",
"                                                                                                                                ",
"                                                                                                                                ",
"                                                                                                                                ",
"                                                                                                                                ",
"                                                                                                                                ",
"                                                                                                                                ",
"                                                                                                                                ",
"                                                                                                                                ",
"                                                                                                                                ",
"                                                                                                                                ",
"                                                                                                                                ",
"                                                  : 1                         c 5                                               ",
"                                                + k  .V                     ^ o.s                                               ",
"                                                O R &.| z                 A +.+.B =                                             ",
"                                                + Q O.O.( 9             y _ X.X.A *                                             ",
"                                                + ! +.| [ B 5           Y ..} o.I =                                             ",
"                                                + W +.[ X.^ 6         5 ^ o.}  .Z *                                             ",
"                                                O I +.[ X.) 9         a ' ..}  .v *                                             ",
"                                                + M o.[ .._ s         v } | | } d +                                             ",
"                                                + a | |  .' k         B  .}  .[ 9 =                                             ",
"                                                  5 `  . .] f         B ..} o.) :                                               ",
"                                                  * ^ +...] a         v +.| O.R +                                               ",
"                                                  o Z #.%.^ - - 5 5 : 5 ! @.O.k +                                               ",
"                                                    y  .U : 9 v v M v s : M ( 5                                                 ",
"                                                    1 5 , z V B M v B V B y : ;                                                 ",
"                                                    * 7 V B v v v v v v v V z :                                                 ",
"                                                    q V m v v v v v v v v v V z                                                 ",
"                                                  5 B B v v v v v v v v v v v V 9                                               ",
"                                                  s V B B v v v v v v v v v B C k                                               ",
"                                                : k A s y C v v v v v v v C y x V ,                                             ",
"                                                , v N 4 r N v v v v v v m N 0 3 N 5                                             ",
"                                                , V > e P % A v v v v v A & L & a t                                             ",
"                                                  k C . . & E v M m m m E @ . X T h                                             ",
"                                                  s T w @ k N m l g l m V w @ j A x 5                                           ",
"                                                ; d M A T B m h G / H f c V F C c V y                                           ",
"                                                < x N v v v m u K $.~ a m v v v v V u                                           ",
"                                                9 V v v v v v c n K b m v v v v v B 9                                           ",
"                                                9 V v v v v v m x s c m v v v v V z ;                                           ",
"                                                = s A v v v v v m m m m v v v B B ,                                             ",
"                                              ; 6 5 a V V B B B z f z N B B V z 9 5 ,                                           ",
"                                              , z x 5 9 a k k y y a y q h k y 5 z c :                                           ",
"                                            : 9 k C M s y y s k v V m j a a a v C k : 9                                         ",
"                                            5 y s B v B B B V k f x s B B B B v B d , y 5                                       ",
"                                          5 9 a s B v v v v N k s s y B v v v v V u 6 y q                                       ",
"                                          6 q s a x v v v v B a a k 9 V v v v v B y y u u                                       ",
"                                          9 q d y k B v v v V y a v y v v v v N v 9 s y y                                       ",
"                                          5 q z a a V v v v B a k B s z m v m m k 7 z q 9                                       ",
"                                            9 x z y V v v v v s z B k z v v m V s w v 5 ,                                       ",
"                                            5 y n t z B v v m d z N k z m x M V 7 z v ;                                         ",
"                                              = m v 5 z M v B u j B d x v m n 9 t A u                                           ",
"                                                < D k y m m B s s x a B v B u 9 A B ;                                           ",
"                                              y q q Z z m m m m k y k B v V a z F 9 ,                                           ",
"                                              x Y 6 q d d N v k a y y v v z a B 9 6 M ,                                         ",
"                                              9 V D u < 6 u d a v C s k a y y 9 q C s                                           ",
"                                                5 a y     < 5 w y a a 9 5 5 : : s y ;                                           ",
"                                                  ,           , , , , ,                                                         ",
"                                                                                                                                ",
"                                                                                                                                ",
"                                                                                                                                ",
"                                                                                                                                ",
"                                                                                                                                ",
"                                                                                                                                "
};
