/* XPM */
static char *out[] = {
/* columns rows colors chars-per-pixel */
"64 64 87 1 ",
"  c #98DBA6",
". c black",
"X c #281F19",
"o c #51321F",
"O c #43362E",
"+ c #563623",
"@ c #583725",
"# c #593927",
"$ c #5C3E2C",
"% c #5F412E",
"& c #584233",
"* c #524238",
"= c #61422F",
"- c #634533",
"; c #664836",
": c #6B4D3B",
"> c #71473D",
", c #6E503E",
"< c #4F4B4A",
"1 c #584D4A",
"2 c #735543",
"3 c #765847",
"4 c #7A5A47",
"5 c #7B5548",
"6 c #765A48",
"7 c #7B5D4B",
"8 c #7E614F",
"9 c #7B6253",
"0 c #625F63",
"q c #835C53",
"w c #81624F",
"e c #836452",
"r c #876957",
"t c #8A6A57",
"y c #8B6D5A",
"u c #8E705E",
"i c #90715E",
"p c #996164",
"a c #927462",
"s c #997367",
"d c #967866",
"f c #987967",
"g c #9E746F",
"h c #957A6A",
"j c #9C7E6C",
"k c #A26B6E",
"l c #B7637E",
"z c #97836A",
"x c #9E816E",
"c c #9D8272",
"v c #A1826E",
"b c #A38472",
"n c #A68876",
"m c #A98975",
"M c #A68A7A",
"N c #AA8C79",
"B c #B18E7A",
"V c #B4927E",
"C c #DA7EA2",
"Z c #99959A",
"A c #AE9281",
"S c #B19685",
"D c #BC9983",
"F c #B49B8C",
"G c #B99C8B",
"H c #BBA292",
"J c #BFA798",
"K c #C4AD9E",
"L c #CAB3A4",
"P c #D2BBAC",
"I c #D7C1B3",
"U c #D9C2B4",
"Y c #DBC6B9",
"T c #DFCABC",
"R c #E0CBBE",
"E c #FC9FC7",
"W c #E6D1C4",
"Q c #E9D4C6",
"! c #EFDBCF",
"~ c #F1DED2",
"^ c #F6E2D7",
"/ c #F7E4D8",
"( c #F9E6DB",
") c #FBE9DD",
"_ c #FEEBE0",
"` c #FFF1E6",
"' c #FFF6EB",
/* pixels */
"                                                                ",
"                                                                ",
"                                                                ",
"                                                                ",
"                                                                ",
"                                                                ",
"                                                                ",
"                                                                ",
"                                                                ",
"                                                                ",
"                                 ;                              ",
"                            5e2 e2;                             ",
"                           6Jvjea7-:                            ",
"                            LPibje;-:                           ",
"                            2/Ltjnf,-::                         ",
"                             c'Hyjbb3=:                         ",
"                             +K'Syjbn7=:                        ",
"                              =T`Nyjxn7-:                       ",
"                               ,~/jijbn2-:                      ",
"                                2~~aijbx:;                      ",
"                                 2/Qiijna-:                     ",
"                                  2!Wiavn7-                     ",
"                                   ;UWaabj:---;;                ",
"                                    @KQviNy:yuaye2;             ",
"                                     @xIVdcehNbnnca2            ",
"                                      +6Mjnu7xxjjjnb8           ",
"                                      ;9tydmyaxjjjjvN7          ",
"                                     -tNbjfxxjjjjjjjbb:         ",
"                                    ;2bvjxjjvjjjjfmBfny         ",
"                                    -ynjjjjjjjjjjN9&mbj2        ",
"                                    ;abjjjjjjjjjjv10jvb2        ",
"                      ;-;:2222,:-;  2jxjjjjjjjjjb8<Z*Bn7        ",
"                    -;2eajjjxxjfy3;%2jcjjjjjjjjjbVX.ODNr        ",
"                  -;7abNbjbbjjxbnbj7;jbjjjjjjjjjfbj9abbj>       ",
"                 -2fnnxjjjjjjjjjjjnx;ybjjjjjjjjjjjbBbfzkCq      ",
"                -ebnjjjjjjjjjjjjjjjb2eNfjjjjjjjjjjjjjxzpEg      ",
"               -enxjjjjjjjjjjjjjjjjne;bjjjjjjjjjjjjjjjxalq      ",
"               9Nxjjjjjjjjjjjjjjjjjjn;7NjjjjjjjjjjjjjjxN5       ",
"              ,bbjjjjjjjjjjjjjjjjjjjna$yNjjjjjjjjjjjjbNy;       ",
"          ;-  ynjjjjjjjjjjjjjjjjjjjjfNy$ymnjjjjbnnbbbfe-        ",
"         --e:2vjjjjjjjjjjjjjjjjjjjjjjjNa-2hbnnhyye882:          ",
"         :KGe8njjjjjjjjjjjjjjvjjjjjjjjjnj7;2e72e7%              ",
"        #K'F7ybjjjjjjjjjjjjjjfhbjjjjjjjjbnfyryfNa-              ",
"        h/WA7ibjjjjjjjjjjjjjjbiabjjjjjjjjjjnbbxny;              ",
"       @F_TNeaxjjjjjjjjjjjjjjjcehbfncfjjjjjjjjjny;              ",
"       #F)Ybrdxjjjjjjjjjjjjjjjbuwbbyubjjjjjjjjjb7               ",
"       #S_Ixyaxjjjjjxjjjjjjjjjjb2af2abfjjjjjjjbf:               ",
"        h)Tneabjjjjjjjjjjjjjjjjn7yy2njjjjjjjjjny-               ",
"         P'G3ubjjjjjjjjjjjjjjjjbrey2njjjjjjjjbc,                ",
"         2W^Nuxjjjjjjjjjjjjjjjjne7y2bjjjjjjjxm7                 ",
"           JWAajjjjjjjjjjjjjjjjn97a2fjjjjjjjne                  ",
"             ubjjjjjjjjjjxjjjjjb,wb:abjjjjjba;                  ",
"              xbjjjjjjjjjjjjjjbj-yN2eNjjjjjnr-                  ",
"              eNjjjjjjjjjjjjjjm7;jn26njjjjjne-                  ",
"               aNjjjjjjjjjjjjNa$aNNa;jbjjjjbe-                  ",
"               ;fNjjjjjjjjjcNa-7bayr;8mcfjjn8;                  ",
"                ;ynnbjjjjvnnr--2;;   ;rNxjjne#:                 ",
"                 -2afjbbjhy:-2;:;::   -enbjxj7;;                ",
"                   ;:7862::7jn7        -7xnbbNf:                ",
"                     27ryjbNnNy;         :rfhjd,                ",
"                       6776323::                                ",
"                         ;--;-;                                 ",
"                                                                ",
"                                                                "
};
