/* XPM */
static char *out[] = {
/* columns rows colors chars-per-pixel */
"64 64 85 1 ",
"  c #98DBA6",
". c black",
"X c #241C16",
"o c #51311E",
"O c #563523",
"+ c #553E24",
"@ c #593A27",
"# c #5C3D2B",
"$ c #633B30",
"% c #5F402E",
"& c #5E4738",
"* c #634533",
"= c #664936",
"- c #6B4D3B",
"; c #6E513F",
": c #494B50",
"> c #645043",
", c #6F5240",
"< c #6E594C",
"1 c #725442",
"2 c #765846",
"3 c #785A47",
"4 c #7A5C4A",
"5 c #7F614F",
"6 c #7D6556",
"7 c #796E6A",
"8 c #865F55",
"9 c #826452",
"0 c #866856",
"q c #896956",
"w c #8B6458",
"e c #816859",
"r c #8B6D5B",
"t c #8E705E",
"y c #A25E6D",
"u c #926F61",
"i c #8F7261",
"p c #927462",
"a c #967866",
"s c #967969",
"d c #9C7E6C",
"f c #B2757F",
"g c #958067",
"h c #9E816E",
"j c #978177",
"k c #9F8575",
"l c #A3826E",
"z c #A28472",
"x c #A68976",
"c c #AA8A76",
"v c #A68C7C",
"b c #AA8C7A",
"n c #B08E7A",
"m c #B6937E",
"M c #7B7B82",
"N c #B86E81",
"B c #CF7496",
"V c #AA9080",
"C c #B19686",
"Z c #B69B8C",
"A c #B89B89",
"S c #BAA08F",
"D c #BEA595",
"F c #C3AA9B",
"G c #D39AA5",
"H c #E085A9",
"J c #C7B0A2",
"K c #CCB4A5",
"L c #CEB7A9",
"P c #D4BDAF",
"I c #D7C2B4",
"U c #D8C2B4",
"Y c #E4CFC2",
"T c #E9D4C7",
"R c #EBD6CA",
"E c #EDD9CC",
"W c #EFDCD0",
"Q c #F2DED2",
"! c #F5E2D5",
"~ c #FCEADF",
"^ c #FFEDE2",
"/ c #FFF1E6",
"( c #FFF5EB",
") c #FFF8ED",
"_ c #FFFCF1",
/* pixels */
"                                                                ",
"                                                                ",
"                                                                ",
"                                                                ",
"                                                                ",
"                                                                ",
"                                                                ",
"                                                                ",
"                                                                ",
"                                                                ",
"                                *                               ",
"                               =5  491                          ",
"                             --*rrtaAb                          ",
"                            -==1rzddTk                          ",
"                           -=*9zxpp!J                           ",
"                          ;=*qxzppYQ-                           ",
"                         -==rblarP(r                            ",
"                         ==pbdsrK_vO                            ",
"                        =*rxddqD_D@                             ",
"                       -*9xddqC)F@                              ",
"                       *;zzdrv/F@                               ",
"                      -*pxdrb^FO                                ",
"                  ==*=*5xdrC!VO                                 ",
"               -3qtpr4-klrSEpo                                  ",
"             *9sxxzznrrzaFL2                                    ",
"            =pxzddszt4zkdd%                                     ",
"           =pxdddddzrpzprq3=                                    ",
"           9bhddddddhldskxz,=                                   ",
"          ,dklblddddddddsdxp=                                   ",
"          9xzq*zdddddddhdddz2                                   ",
"          qxlj:>nddddddddddx9*                                  ",
"          rbt7MXmddddddddddxr= =*=-1111,=**                     ",
"         -axx..<Cdddddddddszp**-4psdhhddsr4-==                  ",
"         9xdze6xdddddddddddxq*rdxxzdhhhhlxxdr1*                 ",
"        fBuhdcnddddddddddddx21bkdddddddddddzxzq=                ",
"       %GHwhddddddddddddddzz=0xddddddddddddddhbd1               ",
"        yNgdddddddddddddddxq=sldddhddddddddddddxz,              ",
"        $ubddddddddddddddzz=9xddddddddddddddddddxd-             ",
"         ;hxhdddddddddddkx;;xdddddddddddddddddddsbp*            ",
"          ;tdzxxxxlddddxd1=lzddddddddddddddddddhddz3 =*         ",
"           =-359wqthxxzr=1zzsddlddddddddddddddddddxp*43#        ",
"                -94294;=qxdddddddddlddddddddddddddla3dFv@       ",
"                2bzp00rzxddddddddhdadddddddddddddddd9qK)i@      ",
"                1ldzzzzhdddddddddltskddddddddddddddzr9F^I=      ",
"                -szddddddddddzzsx0rzdddddddddddddddzp0DQR0      ",
"                =rxddddddddddqpxa9hdddddddddlddddddzpqZTQp      ",
"                 4xdddddddddx93b30xddddddddddddddddhpqCRT9      ",
"                 ;dzddddddddzp1s1izddddddddddddddddzr0Z^I=      ",
"                  9bddddddddda2t2aldddddddddddddddddqqP)k       ",
"                  =pxsddddddzp1p1akdddddddhddddddddarK(Z        ",
"                   -azddddddx01s-azddddddddddddddddpFYs         ",
"                    3zddddddx33z=rxdddddddddddddddzd4           ",
"                    ;dhdldddz-0b-3bddddddddddddddsxt            ",
"                    -akddddzd-pbr%axdddddddddddddzh;            ",
"                    -azddddx0-bbb1=xzsdddddhddddlx4             ",
"                    =pzdddxh=1rrsa*2xxdddddddddzb9              ",
"                   *=azddzz1=  ==11#1axzldddhzxh4               ",
"                 -=-qzddxd;*   --==--*3pslzzdaq-                ",
"                 =3xblzxp-        =ubt;-;1362==                 ",
"                  5zsdp4*         ;dxbxzar93-                   ",
"                                  =12223441                     ",
"                                   ****=                        ",
"                                                                ",
"                                                                "
};
