/* XPM */
static char *out[] = {
/* columns rows colors chars-per-pixel */
"64 64 63 1 ",
"  c #113C1A",
". c #1B4724",
"X c #1D4926",
"o c #1F4C29",
"O c #214F2B",
"+ c #24522E",
"@ c #275531",
"# c #285733",
"$ c #2B5B36",
"% c #2E5E39",
"& c #2F603A",
"* c #33633D",
"= c #366740",
"- c #376842",
"; c #396C44",
": c #3D6F48",
"> c #3E7149",
", c #42754D",
"< c #44784F",
"1 c #447750",
"2 c #467A52",
"3 c #4A7F56",
"4 c #4B8057",
"5 c #4D8259",
"6 c #50865C",
"7 c #52895F",
"8 c #558C61",
"9 c #5A9266",
"0 c #5D9569",
"q c #5F986C",
"w c #629B6E",
"e c #649E70",
"r c #67A173",
"t c #69A375",
"y c #6BA678",
"u c #6DA97A",
"i c #71AD7E",
"p c #75B282",
"a c #79B686",
"s c #7AB887",
"d c #7DBB8B",
"f c #81BF8E",
"g c #81C08F",
"h c #85C593",
"j c #89C996",
"k c #8CCD99",
"l c #8FD19D",
"z c #91D39F",
"x c #94D6A2",
"c c #97D9A5",
"v c #98DBA6",
"b c #9BDEA9",
"n c #9EE2AC",
"m c #A0E5AF",
"M c #A2E7B0",
"N c #A5EAB3",
"B c #A8EEB7",
"V c #A9EFB8",
"C c #ACF2BA",
"Z c #B1F8BF",
"A c #B5FDC4",
"S c #BCFFCB",
"D c #C3FFD2",
/* pixels */
"vvvvvvvvvvvvvvvvvvvvvvvvcNh:&yMBkuuxNxmVBBnzbvvvvvvvvvvvvvvvzvvv",
"vvvvvvvvvvvvvvvvvvvvvvvcnn>+*@vh*@+-jZve8ammzvvvvvvvvvvvvvvvnvvv",
"vvvvvvvvvvvvvvvvvvvvvvvcBj%-;-5-%;:o9N,O++9Bmvvvvvvvvvvvvvvvvvvv",
"vvvvvvvvvvvvvvvvvvvvvvvnCe@;--$*;--*33#;:*+iBvvvvvvvvvvvvvvvvvvv",
"vvvvvvvvvvvvvvvvvvvvcnBBj&*-;,,;=;,:*&:-,;OeDNvvvvvvvzvvvvvvvvvv",
"vvvvvvvvvvvvvvvvvvvcmmr3->2;356,:333:--=***gghmvvvvvvnvvvvvvvvvv",
"vvvvvvvvvvvvvvvvvmnvNwX+-552534334363*;2<*40+#fNvvvvvvvvvvvvvvvv",
"vvvvvvvvvvvvvvcbBcvZj$*<3353333433343>2664***+3Nbvvvvvvvzvvvvvvv",
"vvvvvvvvvvvvvvnMt-;hx*-4533434333333353333:=:+4Bbvvvvvvvnvvvvvvv",
"vvvvvvvvvvvvvvN9o%$%r<*3533333333333333336,=*<kZNnzvvvvvvvvvvvvv",
"vvvvvvvvvvvvvNh@*::**:>4433333343333353335:**467kNbvvvvvvvvvvvvv",
"vvvvvvvvvvvvvCr@;:--*-45333343333343333363;-:*$O*lNzvvvvvvvvvvvv",
"vvvvvvvvvvvvvBq@-:-,323334444333343335322,=;;;;:+6Nvvvvvvvvvvvvv",
"vvvvvvvvvvnCCAe+:*;455434225334443333533-*;;-;--%,vnvvvvvvvvvvvv",
"vvvvvvvvxMbiebh$*:,443335,=3652433333,52-;-=--:-%wZBvvvvvvvvzvvv",
"vvvvvvvvnb2+O:t5,<63333343,-<,=>2335,-,;-;-,::6,*iijNmzvvvvvnvvv",
"vvvvvvvvB9o;;&,632533333353=*;->5433<:33:*,62<62::$#iBvvvvvvvvvv",
"vvvvvvvnb,%;-:3333333333353=;52244<344452:444333355*+jNvvvvvvvvv",
"vvvvvbMCm3$;--333333533344>*25544433343432434434435<+9ZNbvvvvvvv",
"vvvvvnhdAp@;;,233333333343;-25434433433344333434336<$:jvNmcvvvvv",
"vvvvMl%+th**253333333333353223333433333343334333344,***-6vmvvvvv",
"vvvvVt+;:3:*25333333333322355333333333434433333334342***X6mvvvvv",
"vvvvM8+2544=>53333533336,;443333333434343344433333343;;;&:cmvvvv",
"vvvvBw+>5353-25333333335>;53333343333333336<2433433335,*&,vnvvvv",
"vvvvCp$;4434323333333355-:43454333343334442,24344444455**-zABvvv",
"vvMAc4224433443435352,3,*>555,253343334362*,43334424454;;*40aNvv",
"vMlt6<443343333333335:--*=25,*<63433443,6<*,44434224444;*;&O+dNv",
"Bk*.=543333343452,662*-;,:*:;-;563:<64,-,**,54434444444*:;;:+7Vv",
"n<+;>44334334435,-23,=:362=,53=;,**:,>--*;;*,644433444<26,;**gBb",
"h&=4444333442255,=*:523533<5452*-,:-=-;;;;;;*,,44433334443;**zZz",
"j*;543343434,;33;=;253333344352-363--;;;:;;;***64333334443;;%,zN",
"n2&5433333344;=;=:53353333433423444>-;;-*;;;*,:44443334452*;;+4m",
"Cy+3533333444,*-=,63333333333334445>=;--;;-=3512553344355>--;*;x",
"Cw%2343334324;-:*,53333333434333444:=;-,53-;553:,>13442;,=;;;$>b",
"f%353343343,4,,5,,53343334333333343-;*:555,,535,=,33244;*-;;=&pN",
":%244333332<5444653333333343333346,:5,<53355335235333442---;-;bN",
"*=;44434342244433333333333333333<,:454343334333333344342>3:;;$0V",
"6+>54334434433343333333535333336,&<544444333333333333333554;=**j",
"k%O,53323344333333333333533333552,2533333333333433333333335,-;@u",
"Mjw,;45,,55334333332233,2,344,,2452333433333333343433433335:=;$d",
"cCC<*54323:,44433433535:=;562=*-34334333433333552343343333412,5v",
"vN7+;35443;<443333433362==,,;=-,34333333333346,,;343333333355,qn",
"Mz**;*<435,,533334333343;;;*;-:5434333333343,<=*=354333333333:9N",
"nv,$:-,444<364333333333,*=-;;=:5433333334343:*;:=;543533333433,h",
"vBs@,544345422343333334,,,=;;--,533333333343;-;-;;;>2333333436*:",
"vNB7:434334<*:643343333566,=;:*,53333334,36,-;-->6>*;143334352;*",
"Ng,>,4333352--,<43333333333***,343233442-,,----:454223333351;;$>",
"m3X-33434336,*=25333333335<,<,,544<34352**,4>-2233444333343;--@p",
"l**363433335>*-44333443335,1633433333353;2653:5544333333343==$wC",
"v,$<4333443;,<=>541243366,,2433333333333333332333333343444<=;$rC",
"Vr.:443434<=552<34,,6,:3,233433333333333333333333334334352=;=%2n",
"mb02333343334444333253-*:443333433333333333333334333333343;;;%>b",
"xNM4<34354244333334442:-*243333335333335333333333334334445;;*.qB",
"vBw#44442223433433345,--;25343333333333333353335333433444,-=20nn",
"nb,$<444>>543433344444:-343333343333333333223333334434352==%9Cnc",
"mz:*=;464<444433333442*:6333433333333333332*,63;4442452,<-;=&gNv",
"nn3$;*=32;45434333434:*>5452254333333333363=;3>-263:35;-=;;;+wCv",
"vCuo=;>&;=,5>:43236,-:-:455>>5443633335223:==---;>;*;;*%;;;;@rCv",
"vnn2 8B2$;;**;>3;;,**:-->4<==25412,2536:-;*-;;;;:*#;;*25**##$kMv",
"vcMcrlSdo%%;;O2u*-&--;;;--=;;=::;=*:3:,;;**&*:-;&qp,$$4N=&q>tNvv",
"vvxnCnvMy*&hi$hx@O*v0o*#*;;:-@%;;;=O,i$#*+sh$%:-+gDyoO9CduBnMncv",
"vvvvvvvbNxlMnvNb9-sAx2;u8$;-*8,*;$0wtAs,*8BAs%OX5nmmdsnbMBvnvvvv",
"vvvvvvvvvMMvvnvbMnNxmncAhO$owDpO-OdAMbNbzmbvBk0evnxbBBbvvvvvvvvv",
"vvvvvvvvvvvvvvvvvnvvvbnnn0*0MBv3#8nnvvvnmvvvvMCCnvvvvvvvvvvvvvvv"
};
